<?xml version="1.0" encoding="UTF-8"?>
<svg version="1.1" xmlns="http://www.w3.org/2000/svg" width="1024" height="1024">
<path d="M0 0 C337.92 0 675.84 0 1024 0 C1024 337.92 1024 675.84 1024 1024 C686.08 1024 348.16 1024 0 1024 C0 686.08 0 348.16 0 0 Z " fill="#FCFCFB" transform="translate(0,0)"/>
<path d="M0 0 C1.40070278 0.72851653 2.80175074 1.45636972 4.203125 2.18359375 C4.89470703 2.54565918 5.58628906 2.90772461 6.29882812 3.28076172 C8.13155557 4.21979011 9.99428184 5.09967762 11.859375 5.97265625 C21.08681434 10.29934728 29.06123438 15.80748165 37.25927734 21.81787109 C39.18550897 23.22005778 41.12772621 24.59434436 43.08203125 25.95703125 C50.83886077 31.37583925 58.11989812 37.16365213 65.3125 43.3125 C66.87291016 44.52873047 66.87291016 44.52873047 68.46484375 45.76953125 C76.50074934 52.94562801 79.18249009 65.31007701 82.3125 75.3125 C82.84810547 76.8284375 82.84810547 76.8284375 83.39453125 78.375 C84.34575036 81.41890116 84.84222607 84.27628116 85.25 87.4375 C85.49556641 89.27634766 85.49556641 89.27634766 85.74609375 91.15234375 C85.83487793 91.81862793 85.92366211 92.48491211 86.01513672 93.17138672 C86.33200083 95.45291237 86.67971749 97.72807865 87.03515625 100.00390625 C87.16349854 100.83067871 87.29184082 101.65745117 87.42407227 102.50927734 C87.67010546 104.08692072 87.91894337 105.6641314 88.17163086 107.24072266 C90.54614815 122.64848657 91.63229341 137.85717101 91.5 153.4375 C91.49174445 155.17301301 91.48377436 156.9085274 91.47607422 158.64404297 C91.41130946 169.91038016 91.23234037 181.17489449 90.9375 192.4375 C90.9068042 193.7383252 90.8761084 195.03915039 90.84448242 196.37939453 C90.61313756 203.74315423 89.9132353 210.83130038 88.63037109 218.08935547 C87.98127773 224.67102259 89.28374106 229.21238134 93.3125 234.3125 C93.93253906 235.13878906 94.55257812 235.96507812 95.19140625 236.81640625 C99.83523933 242.78942232 104.73950155 247.61992939 110.703125 252.265625 C112.95402369 254.03130002 115.03415558 255.8646193 117.125 257.8125 C119.57637611 260.04289252 122.05215764 261.79102952 124.91796875 263.4296875 C134.76565895 269.09155307 134.76565895 269.09155307 136.38671875 272.7109375 C136.58221338 276.76913638 135.54293215 278.94826854 133.375 282.375 C129.34031716 284.92755445 125.97742553 285.27104634 121.3125 284.3125 C117.23839192 282.19876471 113.62972355 279.41721845 110 276.625 C109.42677002 276.18438232 108.85354004 275.74376465 108.26293945 275.28979492 C104.26361321 272.16667804 100.6386671 268.8425151 97.1328125 265.16796875 C95.29799342 263.29771325 93.37927895 261.6234523 91.375 259.9375 C83.55727519 253.19279624 69.96118621 241.37160161 69.08203125 230.44921875 C69.10330078 228.74185547 69.10330078 228.74185547 69.125 227 C69.13575562 226.04830933 69.13575562 226.04830933 69.14672852 225.07739258 C69.24501591 218.88237446 69.49600256 212.69025183 69.75 206.5 C69.78907471 205.54633545 69.82814941 204.5926709 69.8684082 203.61010742 C69.91054443 202.68045166 69.95268066 201.7507959 69.99609375 200.79296875 C70.03275146 199.97723389 70.06940918 199.16149902 70.10717773 198.32104492 C70.2813279 195.7692583 70.54033227 193.253328 70.82397461 190.71240234 C71.41165637 184.94691419 71.45659591 179.22481768 71.4453125 173.43359375 C71.44626923 172.34031265 71.44722595 171.24703156 71.44821167 170.12062073 C71.44888764 167.83065737 71.44707434 165.54069202 71.44287109 163.25073242 C71.43746772 159.72896107 71.44285956 156.20731455 71.44921875 152.68554688 C71.44855878 150.45572888 71.44727929 148.22591097 71.4453125 145.99609375 C71.44733673 144.93893661 71.44936096 143.88177948 71.45144653 142.79258728 C71.44671829 141.33955956 71.44671829 141.33955956 71.44189453 139.85717773 C71.44109894 139.00131577 71.44030334 138.1454538 71.43948364 137.26365662 C71.52762507 135.3077278 71.52762507 135.3077278 70.3125 134.3125 C69.99991219 132.13057521 69.74045342 129.94104749 69.5 127.75 C65.28520339 86.15097223 65.28520339 86.15097223 42.0625 53.4296875 C40.70125 52.38167969 40.70125 52.38167969 39.3125 51.3125 C38.6525 50.79945313 37.9925 50.28640625 37.3125 49.7578125 C35.33234122 48.24708792 33.32770635 46.7762127 31.3125 45.3125 C30.28511719 44.56226563 29.25773438 43.81203125 28.19921875 43.0390625 C20.08930281 37.1569307 11.80387402 31.62724489 3.3125 26.3125 C2.38179687 25.72210938 1.45109375 25.13171875 0.4921875 24.5234375 C-12.58934118 16.40248851 -25.59245393 15.02417711 -40.6875 14.3125 C-40.6875 14.9725 -40.6875 15.6325 -40.6875 16.3125 C-41.27273438 16.32667969 -41.85796875 16.34085937 -42.4609375 16.35546875 C-48.84868382 16.71034355 -54.74005471 17.96928497 -60.875 19.6875 C-61.62249512 19.89656982 -62.36999023 20.10563965 -63.14013672 20.32104492 C-67.4512187 21.56628912 -71.63581752 23.01019115 -75.82299805 24.62060547 C-78.50895541 25.61733235 -81.24727257 26.39700902 -84 27.1875 C-90.19413433 29.07759585 -95.85994535 31.51187908 -101.6875 34.3125 C-103.21790136 35.01747022 -104.74923225 35.72042441 -106.28125 36.421875 C-117.60065389 41.6363197 -127.42030973 47.15846858 -136.984375 55.21875 C-139.6875 57.3125 -139.6875 57.3125 -142.953125 59.15625 C-148.91964285 62.55039436 -148.91964285 62.55039436 -152.22949219 68.29443359 C-152.70522528 72.30986845 -152.61565952 76.29536426 -152.5703125 80.33203125 C-152.55709158 85.21716187 -153.49722307 89.37458365 -155 94 C-155.33620361 95.03882324 -155.33620361 95.03882324 -155.67919922 96.09863281 C-156.13082573 97.48301559 -156.58474707 98.86665193 -157.04101562 100.24951172 C-158.10581864 103.64739142 -158.92425202 107.10018238 -159.75 110.5625 C-160.94782027 115.5535196 -162.33574905 120.43418482 -163.9375 125.3125 C-165.50481932 130.22873991 -166.09019308 134.17816321 -165.6875 139.3125 C-164.6975 139.6425 -163.7075 139.9725 -162.6875 140.3125 C-162.63851563 141.60285156 -162.58953125 142.89320313 -162.5390625 144.22265625 C-162.46398197 145.94012347 -162.38843646 147.65757041 -162.3125 149.375 C-162.26609375 150.64633789 -162.26609375 150.64633789 -162.21875 151.94335938 C-161.98237983 157.0450155 -161.15578672 161.39404159 -159.6875 166.3125 C-159.46219978 173.23243525 -161.4657591 179.82973912 -163.6875 186.3125 C-164.01041016 187.29476562 -164.01041016 187.29476562 -164.33984375 188.296875 C-167.64723146 197.76892028 -172.72861447 206.62347934 -177.6875 215.3125 C-176.6253125 215.42207031 -175.563125 215.53164063 -174.46875 215.64453125 C-159.25144748 217.30796836 -159.25144748 217.30796836 -153.6875 220.3125 C-151.37156311 224.75909883 -151.37291988 228.97044121 -151.2265625 233.88671875 C-151.04867188 234.68722656 -150.87078125 235.48773438 -150.6875 236.3125 C-150.02492188 236.61929688 -149.36234375 236.92609375 -148.6796875 237.2421875 C-148.02226563 237.59539062 -147.36484375 237.94859375 -146.6875 238.3125 C-146.21875 241.18359375 -146.21875 241.18359375 -146.1875 244.75 C-145.80607917 252.51350321 -145.04122181 259.58253861 -139.66796875 265.55859375 C-136.78704079 268.15486443 -133.79303818 270.51252323 -130.65234375 272.78515625 C-125.39716927 276.79069263 -123.74836074 280.83240899 -122.6875 287.3125 C-122.46977893 290.69106443 -122.31353709 294.04403577 -122.2890625 297.4296875 C-121.92649198 300.49194283 -121.92649198 300.49194283 -119.40234375 302.578125 C-117.14492552 304.0202742 -115.09706329 305.18724318 -112.625 306.1875 C-107.77688171 308.22582109 -103.14423077 310.60825575 -98.484375 313.04296875 C-95.7479997 314.28503855 -93.66661935 314.99220389 -90.6875 315.3125 C-88.50861792 314.48907915 -88.50861792 314.48907915 -86.5078125 313.03125 C-85.36119141 312.26167969 -85.36119141 312.26167969 -84.19140625 311.4765625 C-83.40636719 310.92742187 -82.62132812 310.37828125 -81.8125 309.8125 C-80.64654297 309.03519531 -80.64654297 309.03519531 -79.45703125 308.2421875 C-74.9252838 305.1499363 -70.97692562 301.85491103 -67.203125 297.87158203 C-65.72881802 296.35500272 -64.20273099 295.02070543 -62.5625 293.6875 C-59.62821733 291.36821793 -59.62821733 291.36821793 -57.125 288.5625 C-54.38729757 286.03539006 -53.38245034 285.35515455 -49.6875 285.3125 C-47.4770024 287.00433336 -45.7992164 288.54031691 -43.9375 290.5625 C-43.41309326 291.110271 -42.88868652 291.65804199 -42.34838867 292.22241211 C-38.30968449 296.49618943 -34.51926211 300.95783591 -30.8671875 305.56640625 C-29.31990076 307.51576571 -27.73789821 309.43779264 -26.1328125 311.33984375 C-25.30523438 312.32082031 -24.47765625 313.30179688 -23.625 314.3125 C-22.87089844 315.199375 -22.11679687 316.08625 -21.33984375 317 C-19.6875 319.3125 -19.6875 319.3125 -19.6875 322.3125 C-18.6975 322.6425 -17.7075 322.9725 -16.6875 323.3125 C-11.00119608 329.87341374 -7.00998676 337.84491308 -2.97045898 345.48046875 C-1.99882366 347.31472069 -1.01482883 349.14193414 -0.02929688 350.96875 C3.16869079 356.94206803 6.09374285 362.90578641 8.50073242 369.24365234 C9.84152334 372.66075376 11.65830884 375.79699955 13.45703125 378.98828125 C14.51920226 381.87408833 14.25871652 383.41562172 13.3125 386.3125 C11.3125 388.3125 11.3125 388.3125 9 388.578125 C8.113125 388.57296875 7.22625 388.5678125 6.3125 388.5625 C5.425625 388.56765625 4.53875 388.5728125 3.625 388.578125 C1.3125 388.3125 1.3125 388.3125 -0.6875 386.3125 C-2.14227437 386.00357108 -3.6012557 385.71421404 -5.0625 385.4375 C-8.26950673 384.41802023 -9.38481568 383.87890031 -10.9921875 380.87109375 C-11.64315276 378.80791048 -12.24194915 376.72778026 -12.796875 374.63671875 C-13.68314528 371.32875381 -14.83717306 368.3314841 -16.1875 365.1875 C-17.78259904 361.46072427 -19.30433489 357.72457565 -20.75 353.9375 C-22.32947623 349.99817391 -24.16091961 346.75145665 -26.6875 343.3125 C-27.24179687 342.51328125 -27.79609375 341.7140625 -28.3671875 340.890625 C-36.8067146 328.15281256 -36.8067146 328.15281256 -48.6875 319.3125 C-48.03523438 320.33988281 -47.38296875 321.36726563 -46.7109375 322.42578125 C-41.76355841 330.25439261 -36.95855675 338.0885741 -32.6875 346.3125 C-32.18605469 347.240625 -31.68460938 348.16875 -31.16796875 349.125 C-27.60817917 355.9021184 -25.06098717 362.68854568 -22.765625 369.96484375 C-21.75950956 373.24382772 -21.75950956 373.24382772 -20.546875 376.06640625 C-19.6875 378.3125 -19.6875 378.3125 -19.6875 381.3125 C-28.03910239 380.42180213 -36.00303549 379.40410178 -44.0703125 376.9765625 C-48.54414395 375.84141124 -53.09092971 375.5703347 -57.6875 375.3125 C-57.6875 374.6525 -57.6875 373.9925 -57.6875 373.3125 C-58.23792969 373.33570313 -58.78835938 373.35890625 -59.35546875 373.3828125 C-65.54733786 373.51720966 -71.54547244 373.0484785 -77.6875 372.375 C-89.3600537 371.11197434 -101.0493642 370.91652939 -112.77929688 370.74243164 C-114.24739622 370.71372437 -115.7154952 370.68499797 -117.18359375 370.65625 C-119.13543579 370.62821289 -119.13543579 370.62821289 -121.12670898 370.59960938 C-124.67800338 370.31326572 -127.43948079 369.77277862 -130.6875 368.3125 C-131.65597302 365.40708095 -131.88332812 363.34612546 -131.9375 360.3125 C-131.96328125 359.44625 -131.9890625 358.58 -132.015625 357.6875 C-131.614368 354.7831636 -130.95577387 354.10626878 -128.6875 352.3125 C-126.7702179 351.95173645 -126.7702179 351.95173645 -124.58325195 351.97192383 C-123.3523156 351.97226372 -123.3523156 351.97226372 -122.09651184 351.97261047 C-121.21517075 351.98809433 -120.33382965 352.00357819 -119.42578125 352.01953125 C-118.51998825 352.02377609 -117.61419525 352.02802094 -116.68095398 352.03239441 C-113.78700067 352.04919152 -110.89374294 352.0868455 -108 352.125 C-106.03842151 352.14004551 -104.07683211 352.15373415 -102.11523438 352.16601562 C-97.30572144 352.19909843 -92.49672867 352.25088778 -87.6875 352.3125 C-88.52523002 347.81360134 -90.53220735 346.58974257 -94.25 343.9375 C-95.35306221 343.14350364 -96.45592667 342.3492325 -97.55859375 341.5546875 C-98.59113281 340.81476563 -99.62367188 340.07484375 -100.6875 339.3125 C-102.06520643 338.2326106 -103.4406595 337.14983148 -104.8125 336.0625 C-109.09918234 332.82487916 -113.8278831 330.56306029 -118.6875 328.3125 C-118.6875 327.6525 -118.6875 326.9925 -118.6875 326.3125 C-119.36296875 326.20679688 -120.0384375 326.10109375 -120.734375 325.9921875 C-124.30018812 325.17148448 -127.57252471 323.84242859 -130.9375 322.4375 C-133.51071487 321.36846084 -136.09317788 320.32924881 -138.6875 319.3125 C-139.37368408 319.03092041 -140.05986816 318.74934082 -140.7668457 318.45922852 C-147.00422893 316.09998926 -152.75189733 315.88522763 -159.375 316 C-160.42848633 316.0098291 -161.48197266 316.0196582 -162.56738281 316.02978516 C-175.54593775 315.92999086 -175.54593775 315.92999086 -187.8125 319.375 C-190.71252769 320.82501384 -193.50709299 320.43482335 -196.6875 320.3125 C-196.006875 321.158125 -195.32625 322.00375 -194.625 322.875 C-192.6875 326.3125 -192.6875 326.3125 -192.6875 330 C-193.6875 333.3125 -193.6875 333.3125 -195.3125 335.25 C-198.80120707 336.81073737 -200.88395688 336.88303147 -204.6875 336.3125 C-209.9385692 333.52251507 -214.11523058 329.01427911 -218.4375 325 C-226.57840896 317.44725158 -235.18263967 310.98272103 -244.8125 305.4375 C-245.44510742 305.06802246 -246.07771484 304.69854492 -246.72949219 304.31787109 C-256.73252768 298.74665764 -266.30155661 297.80294537 -277.5715332 297.86645508 C-279.85395973 297.87492195 -282.13383755 297.84619447 -284.41601562 297.81445312 C-299.59405788 297.74130272 -312.06875335 301.48534763 -325.6875 308.3125 C-326.57179688 308.725 -327.45609375 309.1375 -328.3671875 309.5625 C-339.16176505 314.67395105 -349.91599636 321.9971716 -357.3659668 331.43994141 C-360.54925569 334.00759582 -363.35590747 333.85365786 -367.26953125 333.7734375 C-368.00193527 333.77252106 -368.73433929 333.77160461 -369.48893738 333.7706604 C-371.0363921 333.76462936 -372.58383541 333.74889798 -374.13110352 333.72412109 C-376.48172799 333.68778247 -378.83076543 333.68310085 -381.18164062 333.68359375 C-382.6901176 333.67375466 -384.19858401 333.66209422 -385.70703125 333.6484375 C-386.40206253 333.64621185 -387.09709381 333.64398621 -387.81318665 333.64169312 C-392.9521882 333.54342326 -398.23982175 333.2058834 -402.4296875 329.96484375 C-406.73087484 323.45373601 -406.47316576 316.22510502 -406.63299561 308.69290161 C-407.09630931 288.45833727 -410.25294907 269.5325872 -416.6875 250.3125 C-417.21276098 248.4804303 -417.73383653 246.64715358 -418.25 244.8125 C-419.30441069 241.25959443 -420.6848987 238.44700638 -422.6875 235.3125 C-426.81946539 225.34717171 -426.99643175 214.28736698 -426.98828125 203.6640625 C-426.99256638 202.40790131 -426.9968515 201.15174011 -427.00126648 199.85751343 C-427.00841859 196.55549862 -427.00542469 193.25366994 -426.99969482 189.95166016 C-427.00010299 187.25777522 -427.0190286 184.56413673 -427.0375185 181.87032509 C-427.05582121 178.63490842 -427.05207113 175.3995216 -427.05078125 172.1640625 C-427.059991 170.96399567 -427.06920074 169.76392883 -427.07868958 168.52749634 C-427.01932602 157.83408938 -427.01932602 157.83408938 -423.6875 153.3125 C-422.6975 152.9825 -421.7075 152.6525 -420.6875 152.3125 C-419.9748585 151.00316264 -419.31433468 149.66501636 -418.6875 148.3125 C-413.07959927 140.69962402 -405.76058798 135.144168 -398.26831055 129.52685547 C-396.8095582 128.40626331 -395.40545574 127.21547379 -394.0078125 126.01953125 C-391.2293852 123.97546942 -389.09942727 123.73880247 -385.67578125 123.92578125 C-382.33574925 124.57541419 -380.25945958 126.1497158 -377.6875 128.3125 C-377.1203125 129.18261719 -376.553125 130.05273438 -375.96875 130.94921875 C-373.84144394 133.64254195 -373.84144394 133.64254195 -370.359375 133.7578125 C-357.57124133 132.71336334 -346.44990422 129.41049118 -334.6875 124.3125 C-333.676875 123.9825 -332.66625 123.6525 -331.625 123.3125 C-325.80662019 121.33177496 -322.55178185 119.85324193 -319.6875 114.3125 C-318.69673792 111.40985609 -318.69673792 111.40985609 -318 108.375 C-317.74863281 107.37597656 -317.49726563 106.37695312 -317.23828125 105.34765625 C-315.10404438 93.58664884 -322.09954751 84.55487382 -327.86791992 74.79272461 C-328.99357842 72.88587804 -330.10957151 70.97361889 -331.22460938 69.06054688 C-337.9064217 55.54912454 -337.9064217 55.54912454 -348.6875 46.3125 C-351.56601547 45.99639652 -351.56601547 45.99639652 -354.625 46.0625 C-355.64464844 46.05734375 -356.66429687 46.0521875 -357.71484375 46.046875 C-360.75833686 46.31882971 -362.89724343 47.12336381 -365.6875 48.3125 C-369 48.4375 -369 48.4375 -371.6875 48.3125 C-371.6875 48.9725 -371.6875 49.6325 -371.6875 50.3125 C-372.35652344 50.580625 -373.02554688 50.84875 -373.71484375 51.125 C-391.38493062 58.1674565 -391.38493062 58.1674565 -407.6328125 67.890625 C-409.6875 69.3125 -409.6875 69.3125 -412.87109375 71.0546875 C-417.46839424 73.64678246 -421.50223256 76.91016082 -425.625 80.1875 C-427.1544132 81.39390736 -428.68435739 82.59964188 -430.21484375 83.8046875 C-430.95653809 84.39008301 -431.69823242 84.97547852 -432.46240234 85.57861328 C-435.27783162 87.77251045 -438.13761255 89.90265746 -441.01196289 92.01855469 C-443.46543754 93.91326774 -445.55127311 96.06946176 -447.6875 98.3125 C-448.29335938 98.89773438 -448.89921875 99.48296875 -449.5234375 100.0859375 C-456.70613192 107.0484727 -462.55607269 114.16853528 -466.6875 123.3125 C-467.21730469 124.3025 -467.21730469 124.3025 -467.7578125 125.3125 C-469.10208478 128.20437987 -469.27247588 131.17017452 -469.6875 134.3125 C-470.0175 134.6425 -470.3475 134.9725 -470.6875 135.3125 C-470.87274792 136.68274654 -471.0105586 138.0595321 -471.125 139.4375 C-471.54375954 143.58583674 -472.4738695 147.31465835 -473.6875 151.3125 C-474.39340678 154.30420016 -475.04670956 157.30623848 -475.6875 160.3125 C-476.3475 160.3125 -477.0075 160.3125 -477.6875 160.3125 C-477.76226562 161.17746094 -477.83703125 162.04242188 -477.9140625 162.93359375 C-479.37668006 176.94317568 -482.21714971 191.19575447 -486.79296875 204.53515625 C-487.96431071 208.17194287 -488.45701656 211.85641689 -489 215.625 C-489.95642913 221.84751268 -491.28135877 227.75167826 -493.1875 233.75 C-495.41129298 240.75453453 -496.72363298 247.70128119 -497.69921875 254.98217773 C-497.80234375 255.73571533 -497.90546875 256.48925293 -498.01171875 257.265625 C-498.1367981 258.25804199 -498.1367981 258.25804199 -498.2644043 259.27050781 C-498.6875 261.3125 -498.6875 261.3125 -499.6628418 263.58862305 C-500.94378519 266.99378993 -501.36503247 270.35030745 -501.7578125 273.94140625 C-501.8440387 274.70264297 -501.93026489 275.4638797 -502.019104 276.2481842 C-502.29771795 278.78919364 -502.5582675 281.33143827 -502.8125 283.875 C-502.90154602 284.75976013 -502.99059204 285.64452026 -503.08233643 286.55609131 C-510.91451045 347.62945978 -510.91451045 347.62945978 -498.5 404.75 C-490.44680614 412.08735441 -479.53781518 415.57599376 -469.03027344 417.79882812 C-465.15179276 418.64921613 -461.33196646 419.71305412 -457.5 420.75 C-451.7945784 422.27801908 -446.10248222 423.69495883 -440.3125 424.875 C-431.51702204 426.70356046 -423.0991848 429.31785537 -414.75 432.625 C-400.17186999 438.32340574 -385.18597275 442.57606405 -369.9831543 446.24267578 C-363.85961921 447.72873041 -357.97683429 449.44919661 -352.04296875 451.5703125 C-348.61042829 452.65187583 -345.26196001 452.97528679 -341.6875 453.3125 C-341.3575 453.6425 -341.0275 453.9725 -340.6875 454.3125 C-338.84036669 454.66419418 -336.98411899 454.96845632 -335.125 455.25 C-330.96034504 455.88132986 -326.94977523 456.75247952 -322.87133789 457.80200195 C-318.8496013 458.74213065 -314.76940066 459.32302033 -310.6875 459.9375 C-309.81738281 460.0715625 -308.94726562 460.205625 -308.05078125 460.34375 C-305.93019669 460.66999378 -303.8089181 460.99172105 -301.6875 461.3125 C-301.6875 461.9725 -301.6875 462.6325 -301.6875 463.3125 C-292.7866492 463.39458953 -286.63295916 463.26859924 -279.83203125 457.0859375 C-275.95416056 453.8791009 -271.45783271 452.70110375 -266.6875 451.3125 C-265.52605469 450.9515625 -264.36460937 450.590625 -263.16796875 450.21875 C-250.25403551 446.44385672 -235.9973131 444.94671232 -222.6875 447.3125 C-222.98046875 449.36328125 -223.2734375 451.4140625 -223.56640625 453.46484375 C-223.60636719 454.07457031 -223.64632813 454.68429687 -223.6875 455.3125 C-222.46329967 456.74860274 -222.46329967 456.74860274 -218.8125 456.6875 C-213.3582933 456.63232739 -208.31909568 455.46283875 -203.0625 454.125 C-201.86391357 453.83085205 -201.86391357 453.83085205 -200.64111328 453.53076172 C-195.70383601 452.20404027 -191.72933061 450.38019377 -187.49243164 447.51489258 C-181.68377167 443.64533349 -175.32477218 441.34055539 -168.6875 439.3125 C-168.04974348 432.61605655 -171.0592764 429.42479007 -175 424.3125 C-176.6875 421.3125 -176.6875 421.3125 -176.75 418.1875 C-175.37074044 414.45538589 -174.17142179 413.23977589 -170.6875 411.3125 C-165.84524447 410.10193612 -165.84524447 410.10193612 -162.6875 411.3125 C-160.19196081 413.74851257 -158.19506491 416.36677807 -156.11328125 419.1640625 C-153.59888259 422.42751712 -151.00776417 425.12323035 -148.0625 428 C-144.22748929 431.74931214 -140.65077513 435.59145259 -137.17578125 439.671875 C-135.22038465 441.8274303 -132.97396529 443.52040558 -130.6875 445.3125 C-129.32505204 446.95545195 -127.98885125 448.62074337 -126.6875 450.3125 C-126.23503906 450.76367188 -125.78257812 451.21484375 -125.31640625 451.6796875 C-116.33476909 460.68286336 -109.45397493 471.6214696 -102.6875 482.3125 C-102.06875 483.27671875 -101.45 484.2409375 -100.8125 485.234375 C-97.1855095 491.54039257 -96.47914154 498.13283683 -97.6875 505.3125 C-99.78573366 508.27657104 -100.69940366 508.31488073 -104.4375 509.0625 C-107.52908277 508.98834765 -108.45986088 508.53703898 -110.6953125 506.33203125 C-111.92399136 504.71521325 -113.10846576 503.06366949 -114.2421875 501.37890625 C-115.52518794 499.19506525 -115.52518794 499.19506525 -117.6875 498.3125 C-117.54710448 502.29187771 -117.39918681 506.27094294 -117.25 510.25 C-117.21068359 511.36697266 -117.17136719 512.48394531 -117.13085938 513.63476562 C-116.72882337 526.20213361 -116.72882337 526.20213361 -113.6875 538.3125 C-113.07744543 540.56091072 -112.47353358 542.81099497 -111.875 545.0625 C-110.38059468 550.32324787 -108.62108711 555.02195099 -106.01953125 559.82421875 C-105.07685441 561.58517226 -104.20545995 563.38514768 -103.38671875 565.20703125 C-100.18214465 572.23904033 -96.31226113 577.36217177 -90.859375 582.83984375 C-88.707815 585.28937159 -87.67884469 587.23382399 -86.6875 590.3125 C-86.0275 590.3125 -85.3675 590.3125 -84.6875 590.3125 C-84.07156789 599.27773405 -84.07156789 599.27773405 -86.25 602.9375 C-89.60706963 604.83123159 -91.88317228 604.71295555 -95.6875 604.3125 C-99.4599423 603.08863309 -101.83280235 601.55800167 -104.6484375 598.78515625 C-105.36435059 598.08036133 -106.08026367 597.37556641 -106.81787109 596.64941406 C-107.55859863 595.89885742 -108.29932617 595.14830078 -109.0625 594.375 C-109.82256348 593.61026367 -110.58262695 592.84552734 -111.36572266 592.05761719 C-116.74784626 586.53242006 -121.04466846 581.13410811 -124.6875 574.3125 C-125.19410156 573.52101563 -125.70070313 572.72953125 -126.22265625 571.9140625 C-127.87476111 568.97992426 -128.80279501 566.16643362 -129.75 562.9375 C-130.07097656 561.85726562 -130.39195312 560.77703125 -130.72265625 559.6640625 C-131.37132715 557.41078465 -132.01314757 555.1555245 -132.6484375 552.8984375 C-133.37988822 550.37410758 -134.13601023 547.87517893 -134.94140625 545.375 C-135.15603516 544.70726562 -135.37066406 544.03953125 -135.59179688 543.3515625 C-136.03096906 541.99104096 -136.47368635 540.63165873 -136.91992188 539.2734375 C-137.13326172 538.60570312 -137.34660156 537.93796875 -137.56640625 537.25 C-137.7579126 536.66089844 -137.94941895 536.07179688 -138.14672852 535.46484375 C-140.08686282 527.74284646 -139.905649 519.90303008 -139.9375 512 C-139.9684375 510.09831055 -139.9684375 510.09831055 -140 508.15820312 C-140.03752012 499.10178357 -139.25564894 491.30664736 -134.4375 483.5 C-132.47213974 480.57957055 -132.47213974 480.57957055 -132.80078125 478 C-133.94751189 474.52444635 -135.87335013 471.95034286 -138.125 469.125 C-138.56440918 468.56272705 -139.00381836 468.0004541 -139.45654297 467.42114258 C-143.79983859 461.97159399 -148.6165474 457.09214255 -153.6875 452.3125 C-154.10257813 452.6528125 -154.51765625 452.993125 -154.9453125 453.34375 C-159.39415073 456.84325455 -164.03887256 459.80902255 -168.9375 462.625 C-169.53965332 462.97433594 -170.14180664 463.32367187 -170.76220703 463.68359375 C-173.6843415 465.33711011 -176.35807251 466.74386016 -179.6875 467.3125 C-178.19320027 473.36894208 -176.51013531 479.07126514 -173.86328125 484.72265625 C-172.32660698 488.10742383 -170.94164177 491.54899685 -169.5625 495 C-169.30879639 495.6300293 -169.05509277 496.26005859 -168.79370117 496.90917969 C-167.29260716 500.67208071 -165.93117077 504.45712062 -164.6875 508.3125 C-164.0275 508.3125 -163.3675 508.3125 -162.6875 508.3125 C-162.44257812 508.78816406 -162.19765625 509.26382813 -161.9453125 509.75390625 C-156.79787997 519.39202992 -151.13172478 529.53445212 -142.875 536.8125 C-135.16524479 544.03274694 -133.57320579 555.99755129 -131.36328125 565.921875 C-130.75371016 568.5462542 -130.75371016 568.5462542 -128.6875 571.3125 C-128.38632918 572.78210204 -128.14247586 574.26392499 -127.9375 575.75 C-126.93686313 581.22548495 -124.72212232 585.65932288 -122.13671875 590.5546875 C-120.9951414 592.7270692 -119.98353419 594.85549034 -119.0625 597.125 C-118.01840628 599.54539907 -116.94636149 601.67714903 -115.625 603.9375 C-113.6875 607.3125 -113.6875 607.3125 -112.73828125 609.703125 C-111.64690942 612.41329743 -110.35533726 614.88386838 -108.9375 617.4375 C-108.41414063 618.38496094 -107.89078125 619.33242188 -107.3515625 620.30859375 C-106.80242187 621.29988281 -106.25328125 622.29117188 -105.6875 623.3125 C-104.56107182 625.37422035 -103.43600744 627.43668658 -102.3125 629.5 C-101.80976562 630.42167969 -101.30703125 631.34335937 -100.7890625 632.29296875 C-100.42554688 632.95941406 -100.06203125 633.62585938 -99.6875 634.3125 C-100.1515625 632.7965625 -100.1515625 632.7965625 -100.625 631.25 C-102.31035736 625.23606295 -103.60746035 620.1524207 -100.6875 614.3125 C-98.875 613.625 -98.875 613.625 -96.6875 613.3125 C-95.8625 612.796875 -95.0375 612.28125 -94.1875 611.75 C-91.6875 610.3125 -91.6875 610.3125 -87.6875 610.3125 C-87.49414062 611.27671875 -87.30078125 612.2409375 -87.1015625 613.234375 C-86.84117187 614.49765625 -86.58078125 615.7609375 -86.3125 617.0625 C-86.05726563 618.31546875 -85.80203125 619.5684375 -85.5390625 620.859375 C-84.86936054 624.14977813 -84.86936054 624.14977813 -83.65625 626.3125 C-82.21147289 629.29526565 -81.98667609 632.29028447 -81.5625 635.5625 C-81.39492188 636.82578125 -81.22734375 638.0890625 -81.0546875 639.390625 C-80.93351562 640.35484375 -80.81234375 641.3190625 -80.6875 642.3125 C-80.0275 642.3125 -79.3675 642.3125 -78.6875 642.3125 C-78.43355469 643.50746094 -78.17960937 644.70242188 -77.91796875 645.93359375 C-76.20142573 653.89781771 -74.38187115 661.61429671 -71.6875 669.3125 C-70.28271925 675.18703769 -70.6875 679.91421318 -70.6875 686.3125 C-79.9275 686.3125 -89.1675 686.3125 -98.6875 686.3125 C-99.3475 683.3425 -100.0075 680.3725 -100.6875 677.3125 C-101.64245674 675.61962215 -102.6465934 673.95392963 -103.6875 672.3125 C-104.31259342 670.77919909 -104.91407441 669.23619128 -105.5 667.6875 C-107.28117164 663.14152461 -109.4011598 658.94990056 -111.7890625 654.6953125 C-113.30596798 651.99234924 -114.79642274 649.27943313 -116.2734375 646.5546875 C-120.67369709 638.45420962 -125.09736486 630.45498107 -130.14453125 622.734375 C-132.90933618 618.39468119 -135.30791617 613.87185528 -137.6875 609.3125 C-138.55568359 607.65541016 -138.55568359 607.65541016 -139.44140625 605.96484375 C-143.3974396 598.24929706 -146.77049014 590.47585359 -149.6875 582.3125 C-150.16896484 580.98992187 -150.16896484 580.98992187 -150.66015625 579.640625 C-151.98542741 575.86822523 -152.6875 573.39331581 -152.6875 569.3125 C-153.3475 569.3125 -154.0075 569.3125 -154.6875 569.3125 C-154.84863281 568.39210938 -155.00976562 567.47171875 -155.17578125 566.5234375 C-157.39676332 556.18692379 -161.45761431 549.84313658 -168.31982422 541.92626953 C-171.70684819 537.9297989 -174.67179292 533.59136509 -177.6875 529.3125 C-178.53828125 528.10787109 -178.53828125 528.10787109 -179.40625 526.87890625 C-182.42056758 522.49780251 -184.70380827 518.27172933 -186.6875 513.3125 C-187.3242332 512.05784007 -187.97064011 510.80805764 -188.625 509.5625 C-190.67193273 505.53089866 -192.18197821 501.38013531 -193.67578125 497.1171875 C-194.65932638 494.39060292 -195.75057509 491.73351657 -196.875 489.0625 C-198.49054307 485.09650015 -199.31715102 481.57151325 -199.6875 477.3125 C-203.81119081 478.62842102 -203.81119081 478.62842102 -207.75878906 480.37939453 C-212.12649753 481.77097354 -216.30809467 481.47688077 -220.859375 481.3671875 C-222.90754484 481.34185517 -224.95572234 481.31713629 -227.00390625 481.29296875 C-230.20256021 481.24378865 -233.40080307 481.18827644 -236.59912109 481.12060547 C-248.63212355 480.88230961 -259.47374561 481.21718728 -271.10742188 484.39990234 C-275.83919878 485.60607952 -280.20667542 485.84718183 -285.0625 485.6875 C-286.35353638 485.66816406 -286.35353638 485.66816406 -287.6706543 485.6484375 C-296.72718411 485.43699458 -305.70819987 484.46185042 -314.6875 483.3125 C-314.6875 482.6525 -314.6875 481.9925 -314.6875 481.3125 C-316.19775757 481.34984253 -316.19775757 481.34984253 -317.73852539 481.38793945 C-321.6085787 481.31400768 -325.07423628 480.83362282 -328.87109375 480.10546875 C-329.53029312 479.9794075 -330.18949249 479.85334625 -330.8686676 479.72346497 C-332.2533201 479.45680473 -333.6373472 479.18687792 -335.02075195 478.91381836 C-337.11423934 478.50211618 -339.21011628 478.1048935 -341.30664062 477.70898438 C-348.04623328 476.41116673 -354.31490258 474.85872546 -360.6875 472.3125 C-363.39542308 471.59896006 -366.12999887 471.05086863 -368.875 470.5 C-378.45402249 468.47198611 -387.80842365 465.81578361 -397.19482422 463.04296875 C-399.50204039 462.3668482 -401.81363931 461.71041943 -404.12890625 461.0625 C-413.44281863 458.43334756 -422.49140382 455.28654227 -431.54296875 451.86328125 C-438.9960824 449.05347586 -446.43580011 446.57964225 -454.33129883 445.37524414 C-464.35051989 443.84201965 -473.8539704 441.09468331 -483.49169922 438.00292969 C-485.35957441 437.41561025 -487.24301134 436.87815745 -489.12890625 436.3515625 C-501.35602935 432.80227777 -513.35205875 425.43157116 -519.8828125 414.26953125 C-526.84788961 400.10720779 -526.74980743 383.73048933 -527.6875 368.3125 C-527.77667833 366.95182197 -527.8658717 365.59114493 -527.95507812 364.23046875 C-528.70352951 352.38293925 -528.9243131 340.55710523 -528.9375 328.6875 C-528.93983643 327.71857819 -528.94217285 326.74965637 -528.94458008 325.75137329 C-528.96050311 308.12512333 -527.85365062 290.80109373 -525.6875 273.3125 C-525.0275 273.3125 -524.3675 273.3125 -523.6875 273.3125 C-523.72875 272.136875 -523.77 270.96125 -523.8125 269.75 C-523.83453168 262.87611475 -522.68861843 256.09686509 -521.6875 249.3125 C-521.0275 249.3125 -520.3675 249.3125 -519.6875 249.3125 C-519.61184814 248.41349976 -519.61184814 248.41349976 -519.53466797 247.49633789 C-518.95805848 241.16893629 -518.0131524 234.98697676 -516.8125 228.75 C-516.65136719 227.86892578 -516.49023438 226.98785156 -516.32421875 226.08007812 C-515.38045497 221.1234893 -514.12364265 216.47615958 -512.45947266 211.71801758 C-510.90688018 206.88003728 -509.91035815 201.89432956 -508.8125 196.9375 C-507.06896948 189.21004728 -505.27168174 181.51784695 -503.1875 173.875 C-500.75399225 164.92740748 -498.76860358 155.89094645 -496.83007812 146.82446289 C-495.5610361 140.95514354 -494.15458647 135.21349202 -492.30981445 129.49682617 C-491.66368489 127.22890885 -491.30831694 125.02320281 -491 122.6875 C-488.36710356 109.16205621 -479.90590812 98.10470699 -470.6875 88.3125 C-470.23955078 87.81830566 -469.79160156 87.32411133 -469.33007812 86.81494141 C-460.5802921 77.17303278 -450.28361769 69.7993703 -439.6875 62.3125 C-438.67945313 61.58804688 -437.67140625 60.86359375 -436.6328125 60.1171875 C-417.09979706 46.20069407 -396.36386231 35.0993882 -373.6875 27.3125 C-372.70652344 26.96960938 -371.72554687 26.62671875 -370.71484375 26.2734375 C-364.34879843 24.35735635 -358.10592117 23.98513903 -351.5 23.875 C-350.66823242 23.85260254 -349.83646484 23.83020508 -348.97949219 23.80712891 C-340.80042652 23.83797493 -333.59025559 26.51348352 -327.6875 32.3125 C-326.04833729 34.60505512 -324.56825631 36.84187683 -323.125 39.25 C-322.70589355 39.93441162 -322.28678711 40.61882324 -321.85498047 41.32397461 C-315.87242648 51.1771426 -310.22607577 61.23491575 -304.58007812 71.28344727 C-303.04538298 73.99921945 -301.46592905 76.65341302 -299.765625 79.26953125 C-295.63206628 85.72600865 -293.30065568 90.61735497 -294.6875 98.3125 C-295.18830078 99.93285156 -295.18830078 99.93285156 -295.69921875 101.5859375 C-296.79538032 105.71928982 -297.07115146 109.37376939 -297.0625 113.625 C-297.06233887 114.37048096 -297.06217773 115.11596191 -297.06201172 115.8840332 C-296.935092 122.03696746 -295.50289907 126.83214302 -292.6875 132.3125 C-290.66048705 137.27868172 -289.65015257 141.99609444 -290.6875 147.3125 C-293.70185146 152.96440899 -298.77518394 156.21233386 -304.6875 158.3125 C-310.43086051 159.99673441 -315.58935802 160.66661353 -321.5625 160.625 C-322.74223389 160.62197876 -322.74223389 160.62197876 -323.94580078 160.61889648 C-329.95027674 160.51545647 -335.07996579 159.48570101 -340.6875 157.3125 C-344.58566219 156.00785666 -348.50156802 156.22153805 -352.55859375 156.28515625 C-354.11783633 156.29780175 -355.67708124 156.31016276 -357.23632812 156.32226562 C-359.68309865 156.34707476 -362.12974688 156.37506477 -364.57641602 156.40844727 C-366.94548299 156.43873126 -369.31439445 156.45644745 -371.68359375 156.47265625 C-372.7744352 156.49284569 -372.7744352 156.49284569 -373.88731384 156.51344299 C-377.97849712 156.53355114 -380.98586118 156.03591475 -384.6875 154.3125 C-388.24695985 153.96523562 -390.73741495 154.20529639 -393.6875 156.3125 C-393.9040625 157.17875 -393.9040625 157.17875 -394.125 158.0625 C-394.83062527 160.88500109 -396.43412721 162.4090762 -398.2878418 164.58520508 C-404.73048663 172.53596597 -405.40344751 179.35743974 -405.125 189.4375 C-405.10469727 190.72833496 -405.08439453 192.01916992 -405.06347656 193.34912109 C-404.80677271 205.31605047 -404.19212037 216.53244766 -399.6953125 227.7578125 C-398.40622956 231.02548787 -397.44866443 234.35209698 -396.49609375 237.73046875 C-395.84277724 239.81666302 -395.08183336 241.86896176 -394.2890625 243.90625 C-392.34120243 249.04151745 -390.9911159 254.3107742 -389.625 259.625 C-389.36912109 260.59373047 -389.11324219 261.56246094 -388.84960938 262.56054688 C-384.68670385 278.60218023 -383.55544756 293.80594452 -383.6875 310.3125 C-378.0775 310.3125 -372.4675 310.3125 -366.6875 310.3125 C-366.0275 308.9925 -365.3675 307.6725 -364.6875 306.3125 C-360.96516189 302.08257033 -356.82801772 299.26555993 -352.0625 296.375 C-351.35464355 295.9404248 -350.64678711 295.50584961 -349.91748047 295.05810547 C-327.61974646 281.46291344 -305.49216124 274.85654077 -279.3125 274.75 C-278.52091492 274.74637451 -277.72932983 274.74274902 -276.91375732 274.73901367 C-253.78990525 274.75067736 -234.45097278 281.65155322 -216.67578125 296.6484375 C-213.34866593 299.43301732 -211.18407128 300.75428071 -206.7890625 300.63671875 C-204.33780853 300.25855132 -202.35448614 299.44953712 -200.0625 298.5 C-181.19122084 291.24578736 -158.30425885 291.67495531 -138.6875 295.3125 C-138.6875 294.6525 -138.6875 293.9925 -138.6875 293.3125 C-139.203125 293.23 -139.71875 293.1475 -140.25 293.0625 C-150.49350139 289.91065342 -156.76002994 281.97280373 -162.18359375 273.1640625 C-164.01223341 269.69677172 -165.14989886 266.30125096 -166.08203125 262.50390625 C-166.70475288 260.2500557 -167.62588459 258.38845239 -168.6875 256.3125 C-169.75978916 251.59442771 -169.7704243 247.12210926 -169.6875 242.3125 C-170.81542969 242.18746094 -171.94335938 242.06242188 -173.10546875 241.93359375 C-177.80051413 241.34606773 -182.38098505 240.38782282 -187 239.375 C-193.87597353 237.89502983 -200.75323689 236.49677864 -207.6875 235.3125 C-206.63966117 232.08838052 -205.53348263 228.91345499 -204.3125 225.75 C-202.97106045 222.25694455 -201.9525888 218.72552864 -200.9375 215.125 C-199.14671201 209.17849027 -196.53719471 204.16353991 -193.48828125 198.77734375 C-190.84280525 193.68724133 -188.97237562 188.38414369 -187.04296875 182.9921875 C-185.92664186 179.96169779 -184.70748377 177.09493986 -183.3125 174.1875 C-181.74063282 170.74249109 -181.16479263 168.14568738 -181.6875 164.3125 C-182.3465841 162.64282028 -183.01400839 160.97642045 -183.6875 159.3125 C-184.14063302 156.64847622 -184.41381633 154.00372279 -184.6875 151.3125 C-185.3475 151.3125 -186.0075 151.3125 -186.6875 151.3125 C-187.20586053 134.20660237 -187.20586053 134.20660237 -185.125 126.375 C-183.80122467 121.38919199 -183.68334933 117.65654513 -184.3515625 112.578125 C-185.63040248 100.14661074 -184.9619203 87.57812377 -182.6875 75.3125 C-182.0275 75.3125 -181.3675 75.3125 -180.6875 75.3125 C-180.605 74.6525 -180.5225 73.9925 -180.4375 73.3125 C-178.48982171 65.52178686 -174.13712921 60.10253155 -168.625 54.4375 C-167.95960205 53.74277588 -167.2942041 53.04805176 -166.60864258 52.33227539 C-153.00449595 38.25050332 -138.37969617 27.42801505 -120.765625 18.82421875 C-118.70102313 17.81025819 -116.64879288 16.77073778 -114.609375 15.70703125 C-109.1879917 12.89208223 -104.01804777 10.62188012 -98.12109375 9.02734375 C-95.53173634 8.26674599 -93.11184337 7.29608357 -90.625 6.25 C-86.77725868 4.65783118 -83.08824428 3.61088105 -78.98828125 2.90234375 C-76.52587777 2.35101652 -76.52587777 2.35101652 -73.79296875 0.921875 C-68.06078936 -1.59765512 -61.82394216 -2.35618163 -55.6875 -3.375 C-55.02875885 -3.48522491 -54.3700177 -3.59544983 -53.6913147 -3.70901489 C-35.74505303 -6.66337884 -16.57025331 -8.84027755 0 0 Z " fill="#0491B7" transform="translate(696.6875,261.6875)"/>
<path d="M0 0 C1.40070278 0.72851653 2.80175074 1.45636972 4.203125 2.18359375 C5.24049805 2.72669189 5.24049805 2.72669189 6.29882812 3.28076172 C8.13155557 4.21979011 9.99428184 5.09967762 11.859375 5.97265625 C21.08681434 10.29934728 29.06123438 15.80748165 37.25927734 21.81787109 C39.18550897 23.22005778 41.12772621 24.59434436 43.08203125 25.95703125 C50.83886077 31.37583925 58.11989812 37.16365213 65.3125 43.3125 C66.35277344 44.12332031 67.39304687 44.93414062 68.46484375 45.76953125 C76.50074934 52.94562801 79.18249009 65.31007701 82.3125 75.3125 C82.84810547 76.8284375 82.84810547 76.8284375 83.39453125 78.375 C84.34575036 81.41890116 84.84222607 84.27628116 85.25 87.4375 C85.49556641 89.27634766 85.49556641 89.27634766 85.74609375 91.15234375 C85.83487793 91.81862793 85.92366211 92.48491211 86.01513672 93.17138672 C86.33200083 95.45291237 86.67971749 97.72807865 87.03515625 100.00390625 C87.16349854 100.83067871 87.29184082 101.65745117 87.42407227 102.50927734 C87.67010546 104.08692072 87.91894337 105.6641314 88.17163086 107.24072266 C90.54614815 122.64848657 91.63229341 137.85717101 91.5 153.4375 C91.49174445 155.17301301 91.48377436 156.9085274 91.47607422 158.64404297 C91.41130946 169.91038016 91.23234037 181.17489449 90.9375 192.4375 C90.9068042 193.7383252 90.8761084 195.03915039 90.84448242 196.37939453 C90.61313756 203.74315423 89.9132353 210.83130038 88.63037109 218.08935547 C87.98127773 224.67102259 89.28374106 229.21238134 93.3125 234.3125 C93.93253906 235.13878906 94.55257813 235.96507812 95.19140625 236.81640625 C99.83523933 242.78942232 104.73950155 247.61992939 110.703125 252.265625 C112.95402369 254.03130002 115.03415558 255.8646193 117.125 257.8125 C119.57637611 260.04289252 122.05215764 261.79102952 124.91796875 263.4296875 C134.76565895 269.09155307 134.76565895 269.09155307 136.38671875 272.7109375 C136.58221338 276.76913638 135.54293215 278.94826854 133.375 282.375 C129.34031716 284.92755445 125.97742553 285.27104634 121.3125 284.3125 C117.23839192 282.19876471 113.62972355 279.41721845 110 276.625 C109.14015503 275.96407349 109.14015503 275.96407349 108.26293945 275.28979492 C104.26361321 272.16667804 100.6386671 268.8425151 97.1328125 265.16796875 C95.29799342 263.29771325 93.37927895 261.6234523 91.375 259.9375 C83.55727519 253.19279624 69.96118621 241.37160161 69.08203125 230.44921875 C69.09621094 229.31097656 69.11039063 228.17273438 69.125 227 C69.13217041 226.36553955 69.13934082 225.7310791 69.14672852 225.07739258 C69.24501591 218.88237446 69.49600256 212.69025183 69.75 206.5 C69.78907471 205.54633545 69.82814941 204.5926709 69.8684082 203.61010742 C69.91054443 202.68045166 69.95268066 201.7507959 69.99609375 200.79296875 C70.05108032 199.56936646 70.05108032 199.56936646 70.10717773 198.32104492 C70.2813279 195.7692583 70.54033227 193.253328 70.82397461 190.71240234 C71.41165637 184.94691419 71.45659591 179.22481768 71.4453125 173.43359375 C71.44626923 172.34031265 71.44722595 171.24703156 71.44821167 170.12062073 C71.44888764 167.83065737 71.44707434 165.54069202 71.44287109 163.25073242 C71.43746772 159.72896107 71.44285956 156.20731455 71.44921875 152.68554688 C71.44855878 150.45572888 71.44727929 148.22591097 71.4453125 145.99609375 C71.44834885 144.41035805 71.44834885 144.41035805 71.45144653 142.79258728 C71.44829437 141.82390213 71.44514221 140.85521698 71.44189453 139.85717773 C71.44109894 139.00131577 71.44030334 138.1454538 71.43948364 137.26365662 C71.52762507 135.3077278 71.52762507 135.3077278 70.3125 134.3125 C69.99991219 132.13057521 69.74045342 129.94104749 69.5 127.75 C65.28520339 86.15097223 65.28520339 86.15097223 42.0625 53.4296875 C41.155 52.73101562 40.2475 52.03234375 39.3125 51.3125 C38.3225 50.54292969 38.3225 50.54292969 37.3125 49.7578125 C35.33234122 48.24708792 33.32770635 46.7762127 31.3125 45.3125 C30.28511719 44.56226563 29.25773438 43.81203125 28.19921875 43.0390625 C20.08930281 37.1569307 11.80387402 31.62724489 3.3125 26.3125 C2.38179687 25.72210938 1.45109375 25.13171875 0.4921875 24.5234375 C-12.58934118 16.40248851 -25.59245393 15.02417711 -40.6875 14.3125 C-40.6875 14.9725 -40.6875 15.6325 -40.6875 16.3125 C-41.27273438 16.32667969 -41.85796875 16.34085937 -42.4609375 16.35546875 C-48.84868382 16.71034355 -54.74005471 17.96928497 -60.875 19.6875 C-61.62249512 19.89656982 -62.36999023 20.10563965 -63.14013672 20.32104492 C-67.4512187 21.56628912 -71.63581752 23.01019115 -75.82299805 24.62060547 C-78.50895541 25.61733235 -81.24727257 26.39700902 -84 27.1875 C-90.19413433 29.07759585 -95.85994535 31.51187908 -101.6875 34.3125 C-103.21790136 35.01747022 -104.74923225 35.72042441 -106.28125 36.421875 C-117.60065389 41.6363197 -127.42030973 47.15846858 -136.984375 55.21875 C-139.6875 57.3125 -139.6875 57.3125 -142.953125 59.15625 C-148.91964285 62.55039436 -148.91964285 62.55039436 -152.22949219 68.29443359 C-152.70522528 72.30986845 -152.61565952 76.29536426 -152.5703125 80.33203125 C-152.55709128 85.21727076 -153.49751344 89.37444564 -155 94 C-155.22486084 94.69617432 -155.44972168 95.39234863 -155.68139648 96.10961914 C-156.13352657 97.49773781 -156.58817155 98.88504003 -157.04541016 100.27148438 C-158.08004936 103.56029948 -158.88359378 106.89866147 -159.6875 110.25 C-161.81251646 118.99572613 -164.24168023 127.65189228 -166.6875 136.3125 C-171.8758957 133.02312495 -176.44539539 129.80414018 -180.6875 125.3125 C-181.6775 124.6525 -182.6675 123.9925 -183.6875 123.3125 C-183.9453125 121.32421875 -183.9453125 121.32421875 -183.8125 119 C-183.68806036 116.55683512 -183.64529821 114.50601063 -184.16796875 112.109375 C-184.92522434 108.03272083 -184.87811482 104.0130377 -184.875 99.875 C-184.87564453 98.99424805 -184.87628906 98.11349609 -184.87695312 97.20605469 C-184.81744614 89.76497658 -184.04572383 82.6372071 -182.6875 75.3125 C-182.0275 75.3125 -181.3675 75.3125 -180.6875 75.3125 C-180.605 74.6525 -180.5225 73.9925 -180.4375 73.3125 C-178.48982171 65.52178686 -174.13712921 60.10253155 -168.625 54.4375 C-167.62690308 53.39541382 -167.62690308 53.39541382 -166.60864258 52.33227539 C-153.00449595 38.25050332 -138.37969617 27.42801505 -120.765625 18.82421875 C-118.70102313 17.81025819 -116.64879288 16.77073778 -114.609375 15.70703125 C-109.1879917 12.89208223 -104.01804777 10.62188012 -98.12109375 9.02734375 C-95.53173634 8.26674599 -93.11184337 7.29608357 -90.625 6.25 C-86.77725868 4.65783118 -83.08824428 3.61088105 -78.98828125 2.90234375 C-76.52587777 2.35101652 -76.52587777 2.35101652 -73.79296875 0.921875 C-68.06078936 -1.59765512 -61.82394216 -2.35618163 -55.6875 -3.375 C-55.02875885 -3.48522491 -54.3700177 -3.59544983 -53.6913147 -3.70901489 C-35.74505303 -6.66337884 -16.57025331 -8.84027755 0 0 Z " fill="#05ABD2" transform="translate(696.6875,261.6875)"/>
<path d="M0 0 C2.9249912 1.88980913 4.84951314 4.28872859 7 7 C8.02287109 8.10601562 8.02287109 8.10601562 9.06640625 9.234375 C20.41531195 22.02540684 20.66704674 38.74898221 20 55 C19.04004638 66.8759977 14.48590917 77.25260354 9.0625 87.7265625 C7.48869833 91.0940352 6.7748513 94.36415931 6 98 C5.4740625 99.7634375 5.4740625 99.7634375 4.9375 101.5625 C3.88785858 105.00333277 3.88785858 105.00333277 3.6875 108.6875 C3 112 3 112 0.5625 114.375 C-3.58366173 117.00427329 -6.02243858 117.42910012 -11 117 C-13.19140625 115.4765625 -13.19140625 115.4765625 -15 113 C-15.43682804 110.18321228 -15.6200969 107.87198348 -15.5625 105.0625 C-15.55081787 104.30324219 -15.53913574 103.54398437 -15.52709961 102.76171875 C-15.05571513 90.55453054 -8.82605902 80.41676873 -3.0859375 69.9453125 C4.0788523 56.54991751 3.27844105 43.36463823 -1 29 C-2.10473253 25.95857589 -3.22292965 23.74638146 -5 21 C-7.35874943 20.00814093 -8.61645213 19.90464673 -11.10546875 20.5234375 C-11.79253906 20.80445313 -12.47960937 21.08546875 -13.1875 21.375 C-14.22970703 21.78878906 -14.22970703 21.78878906 -15.29296875 22.2109375 C-16.99232243 22.87726884 -16.99232243 22.87726884 -18 24 C-20.1875 24.5 -20.1875 24.5 -23 24 C-26.21798128 21.31834893 -28.74584619 18.70759589 -29.375 14.48046875 C-28.77466656 10.50951317 -26.48949827 9.14640778 -23.47265625 6.71484375 C-16.61946043 1.96199547 -8.49966043 -2.24905104 0 0 Z " fill="#07A9D0" transform="translate(719,366)"/>
<path d="M0 0 C0.25523437 0.90878906 0.25523437 0.90878906 0.515625 1.8359375 C2.10802395 7.34157218 3.97250276 12.60250644 6.23046875 17.87109375 C7 20 7 20 7 23 C4.06769807 21.67879172 2.01335101 20.25361803 -0.234375 17.9609375 C-0.80800781 17.38085938 -1.38164063 16.80078125 -1.97265625 16.203125 C-2.55917969 15.59984375 -3.14570312 14.9965625 -3.75 14.375 C-4.35199219 13.76398437 -4.95398438 13.15296875 -5.57421875 12.5234375 C-7.05405305 11.02011376 -8.52764676 9.51065144 -10 8 C-7.92379115 3.44573543 -5.311983 0 0 0 Z " fill="#E4EBED" transform="translate(632,583)"/>
<path d="M0 0 C3.25976906 1.1240583 3.96186478 1.92812978 5.625 5.0625 C6.07875 6.031875 6.5325 7.00125 7 8 C7.66 8.33 8.32 8.66 9 9 C9.2165625 7.576875 9.2165625 7.576875 9.4375 6.125 C10 3 10 3 11 1 C12.32 1 13.64 1 15 1 C14.77183594 1.64066406 14.54367187 2.28132812 14.30859375 2.94140625 C11.29605298 12.00604687 12.83479013 18.22102167 16 27 C15.34 27 14.68 27 14 27 C13.40832031 25.865625 12.81664062 24.73125 12.20703125 23.5625 C11.40901803 22.04158068 10.61083165 20.5207522 9.8125 19 C9.42513672 18.25621094 9.03777344 17.51242187 8.63867188 16.74609375 C6.26208853 12.22862127 3.73465537 7.89168176 0.92456055 3.62890625 C0 2 0 2 0 0 Z " fill="#E0E4E1" transform="translate(583,871)"/>
<path d="M0 0 C2.6270631 2.6270631 2.746059 4.69440272 3.5 8.3125 C4.18656983 11.58490077 4.84972236 14.62484261 6.09375 17.73046875 C7 20 7 20 7 23 C6.34 23 5.68 23 5 23 C4.67 23.66 4.34 24.32 4 25 C1.83713681 17.03100406 -0.29830289 9.08306125 -2 1 C-1.34 0.67 -0.68 0.34 0 0 Z " fill="#D3E8EE" transform="translate(560,802)"/>
<path d="M0 0 C1.875 0.1875 1.875 0.1875 4 1 C6.28855988 4.89055179 6.41067246 8.56473741 6 13 C4.75 15 4.75 15 3 16 C0.8125 15.6875 0.8125 15.6875 -1 15 C-0.319375 14.484375 0.36125 13.96875 1.0625 13.4375 C3.38172945 11.06168626 3.38172945 11.06168626 2.875 7.5 C2.16718535 4.6687414 1.48842699 2.48071165 0 0 Z " fill="#E8DAD5" transform="translate(500,582)"/>
<path d="M0 0 C0 3 0 3 -1.50390625 4.578125 C-2.18324219 5.12984375 -2.86257813 5.6815625 -3.5625 6.25 C-7.60594654 9.63035014 -11.32727213 13.22397665 -15 17 C-15.66 16.67 -16.32 16.34 -17 16 C-11.85933433 9.82279683 -6.52489063 4.69731709 0 0 Z " fill="#76BACD" transform="translate(295,394)"/>
<path d="M0 0 C1.32 0 2.64 0 4 0 C3.54803755 1.60597325 3.08817673 3.20972508 2.625 4.8125 C2.36976563 5.70582031 2.11453125 6.59914063 1.8515625 7.51953125 C1 10 1 10 -1 13 C-1.2236337 11.58566794 -1.42826476 10.16832382 -1.625 8.75 C-1.74101563 7.96109375 -1.85703125 7.1721875 -1.9765625 6.359375 C-2.00319395 3.67847541 -1.36592084 2.27305911 0 0 Z " fill="#7ABDCE" transform="translate(594,872)"/>
<path d="M0 0 C1.79068573 2.6860286 2.66055791 4.6626589 3.625 7.6875 C3.88539063 8.49574219 4.14578125 9.30398438 4.4140625 10.13671875 C4.60742188 10.75160156 4.80078125 11.36648438 5 12 C4.34 12 3.68 12 3 12 C2.29773859 10.75823305 1.61370891 9.50614401 0.9375 8.25 C0.36322266 7.20585938 0.36322266 7.20585938 -0.22265625 6.140625 C-1.1312406 3.63859372 -0.88336837 2.4667645 0 0 Z " fill="#86BFCB" transform="translate(594,886)"/>
<path d="M0 0 C3.16115776 1.36983503 3.9927092 1.9890638 6 5 C6.125 7.6875 6.125 7.6875 6 10 C3.38275905 7.63202009 1.67138271 5.10399646 0 2 C0 1.34 0 0.68 0 0 Z " fill="#C5DBDD" transform="translate(583,871)"/>
<path d="M0 0 C1.9375 0.375 1.9375 0.375 4 1 C5.35439668 3.70879335 5.06501451 6.00933268 5 9 C4.34 8.01 3.68 7.02 3 6 C2.195625 4.9790625 2.195625 4.9790625 1.375 3.9375 C0 2 0 2 0 0 Z " fill="#F5DBCF" transform="translate(500,582)"/>
<path d="M0 0 C1.4606285 2.64738916 2 3.89448334 2 7 C1.34 7 0.68 7 0 7 C-0.33 7.66 -0.66 8.32 -1 9 C-1.625 5.625 -1.625 5.625 -2 2 C-1.34 1.34 -0.68 0.68 0 0 Z " fill="#B4DBE4" transform="translate(565,818)"/>
<path d="M0 0 C0.66 0.66 1.32 1.32 2 2 C1.75 4.0625 1.75 4.0625 1 6 C0.01 6.495 0.01 6.495 -1 7 C-1.33 5.02 -1.66 3.04 -2 1 C-1.34 0.67 -0.68 0.34 0 0 Z " fill="#BADEE8" transform="translate(560,802)"/>
</svg>
