<?xml version="1.0" encoding="UTF-8"?>
<svg version="1.1" xmlns="http://www.w3.org/2000/svg" width="1024" height="1024">
<path d="M0 0 C337.92 0 675.84 0 1024 0 C1024 337.92 1024 675.84 1024 1024 C686.08 1024 348.16 1024 0 1024 C0 686.08 0 348.16 0 0 Z " fill="#283752" transform="translate(0,0)"/>
<path d="M0 0 C0 0.66 0 1.32 0 2 C1.25103516 2.05607422 1.25103516 2.05607422 2.52734375 2.11328125 C9.57893521 2.52522989 15.45476022 3.4300899 22 6 C23.75570312 6.61875 23.75570312 6.61875 25.546875 7.25 C39.82852972 12.3157984 53.07613616 19.1000607 66 27 C66.85335938 27.51820313 67.70671875 28.03640625 68.5859375 28.5703125 C79.14406965 35.13347573 89.46386739 42.31320904 99.1875 50.0625 C104.72868224 54.42312326 108.77136815 56.54555712 116 56 C119.39914975 54.86695008 120.05254451 53.87481525 122 51 C123.32 51.66 124.64 52.32 126 53 C126.10038357 57.3191962 126.17216491 61.63773871 126.21972656 65.95776367 C126.23959449 67.42110042 126.26669882 68.88436049 126.30175781 70.34741211 C126.70028838 87.43147969 122.52935796 102.05841144 111 115 C108.42379347 117.4524386 105.75010894 119.74625219 103 122 C102.67 122.33 102.34 122.66 102 123 C102.04281737 127.9347018 102.78335648 132.87735238 103.71630859 137.71191406 C106.79511895 153.80522307 106.45777076 170.06016211 106.39111328 186.37426758 C106.37425779 190.5439951 106.38403139 194.71313783 106.40143967 198.88284397 C106.46307591 216.35332553 106.04028777 233.70107374 104.6015625 251.1171875 C104.53904675 251.87698347 104.47653099 252.63677944 104.41212082 253.41959953 C103.36626532 265.83849481 101.68991567 278.11379814 99.46875 290.37792969 C99.02587286 292.85527367 98.6145753 295.33506564 98.21875 297.8203125 C96.23540894 310.26211715 94.12569697 322.7882135 91 335 C91.99 335.061875 92.98 335.12375 94 335.1875 C97.85594376 335.75252938 100.25860877 337.27353217 103.45703125 339.4140625 C112.68076465 345.16649838 122.85755007 349.44147757 132.86328125 353.6171875 C136.43865206 355.19337837 139.78662085 357.0079102 143.1328125 359.01953125 C145.07515618 360.03946486 146.85827556 360.55737695 149 361 C149 361.66 149 362.32 149 363 C149.763125 363.12375 150.52625 363.2475 151.3125 363.375 C154 364 154 364 157 366 C157 366.66 157 367.32 157 368 C160.41513975 366.86162008 161.49981499 365.34204501 163.69921875 362.59765625 C165.64168161 360.21186853 167.77489691 358.12620962 170 356 C170.71027344 355.31808594 171.42054688 354.63617187 172.15234375 353.93359375 C177.29525572 349.13191764 182.52883869 345.14272239 188.54296875 341.4921875 C190.4329466 340.34437901 192.26315872 339.09774377 194.0625 337.8125 C199.8829321 334.22116955 206.02601188 331.26589599 213 332 C213 331.34 213 330.68 213 330 C214.51870698 329.514136 216.04010699 329.03668799 217.5625 328.5625 C218.83287109 328.16224609 218.83287109 328.16224609 220.12890625 327.75390625 C226.39589377 326.10828912 232.50496572 325.83669931 238.9375 325.875 C239.76290283 325.87838379 240.58830566 325.88176758 241.4387207 325.88525391 C263.21623632 326.0648709 263.21623632 326.0648709 273 329 C275.06124998 329.50512845 277.12385994 330.00472639 279.1875 330.5 C282.95077214 331.40752565 286.42152416 332.53037553 290 334 C291.0725 334.28875 292.145 334.5775 293.25 334.875 C297.71188896 336.21356669 301.77819879 338.05095759 306 340 C306.86882813 340.38285156 307.73765625 340.76570313 308.6328125 341.16015625 C320.66021091 346.48853361 332.17408023 351.99480032 340 363 C344.29488381 362.54226862 345.80231366 360.16815847 348.4375 356.9375 C353.79002305 350.69492418 359.75636941 346.92906441 367 343 C368.13308594 342.36964844 368.13308594 342.36964844 369.2890625 341.7265625 C385.67132494 333.04592145 408.41258936 331.5852784 426.05175781 336.90405273 C432.49734311 339.13773343 437.54958146 341.86106639 443 346 C442.6443396 345.17592651 442.6443396 345.17592651 442.28149414 344.33520508 C441.203502 341.82975166 440.13294598 339.32118622 439.0625 336.8125 C438.68931641 335.94818359 438.31613281 335.08386719 437.93164062 334.19335938 C437.57392578 333.35224609 437.21621094 332.51113281 436.84765625 331.64453125 C436.51773682 330.87471924 436.18781738 330.10490723 435.84790039 329.31176758 C433.95123292 324.14057717 433.85261808 319.15800248 433.8671875 313.69921875 C433.86623077 312.90401321 433.86527405 312.10880768 433.86428833 311.289505 C433.86360966 309.61105266 433.86544205 307.93259765 433.86962891 306.25415039 C433.87496028 303.70648177 433.86968427 301.15899115 433.86328125 298.61132812 C433.8639425 296.97395795 433.86522464 295.33658788 433.8671875 293.69921875 C433.86516327 292.94686447 433.86313904 292.19451019 433.86105347 291.4193573 C433.88232807 286.53275693 434.31159698 281.83898784 435 277 C435.66 277 436.32 277 437 277 C436.48438226 257.13874662 434.36225172 238.15380066 429 219 C428.52046875 217.25396484 428.52046875 217.25396484 428.03125 215.47265625 C426.26809838 209.37982987 424.1540236 203.80875727 421.1484375 198.21875 C419.92986633 195.86450366 418.9493609 193.47356417 418 191 C416.4840625 192.175625 416.4840625 192.175625 414.9375 193.375 C409.47844888 197.23681372 403.7844891 198.54135298 397.1484375 198.3828125 C393.27873026 197.69330103 391.63082483 195.88749067 389 193 C387.625 190.1875 387.625 190.1875 387 188 C385.01979579 188.44033992 385.01979579 188.44033992 383 190 C382.05839631 191.97268104 381.37261409 193.94500861 380.7109375 196.02734375 C380 198 380 198 378 201 C374.8828125 201.29296875 374.8828125 201.29296875 371.125 201.1875 C369.89007812 201.16042969 368.65515625 201.13335937 367.3828125 201.10546875 C366.26648438 201.07066406 365.15015625 201.03585937 364 201 C361.47778963 201 358.95352278 201.073437 356.4375 201.25 C355.303125 201.1675 354.16875 201.085 353 201 C352.54625 200.34 352.0925 199.68 351.625 199 C350.820625 198.01 350.820625 198.01 350 197 C341.52631183 196.16652247 331.27774032 196.97779549 323.5625 200.625 C315.98265747 203.55055326 306.48440762 202.99376305 299 200 C294.74060809 197.57799283 291.95399826 195.55932928 290 191 C289.51207836 187.5845485 289.49655229 185.81234778 291.32421875 182.86328125 C295.61224537 179.87731235 300.14482727 180.3212651 305.25 180.25 C306.28125 180.22035156 307.3125 180.19070313 308.375 180.16015625 C310.91674495 180.08955222 313.45757783 180.03680991 316 180 C316 179.01 316 178.02 316 177 C315.360625 176.835 314.72125 176.67 314.0625 176.5 C312 175 312 175 311.328125 171.6640625 C310.76353072 166.03956795 311.22910199 160.4929606 311.6875 154.875 C311.75388672 153.81667969 311.82027344 152.75835937 311.88867188 151.66796875 C312.37066519 145.6183833 313.12630046 141.87360286 317 137 C317.2784375 136.18789063 317.556875 135.37578125 317.84375 134.5390625 C319.5858864 130.71342514 322.48134556 128.24304912 325.5 125.375 C326.67925598 124.23923069 327.85642363 123.10128815 329.03125 121.9609375 C329.55267578 121.46384277 330.07410156 120.96674805 330.61132812 120.45458984 C332.22903574 118.8442269 332.22903574 118.8442269 334 116 C334.66 116 335.32 116 336 116 C336.226875 115.4225 336.45375 114.845 336.6875 114.25 C338.33488275 111.42591529 340.43454838 110.0023037 343 108 C343.556875 107.2575 344.11375 106.515 344.6875 105.75 C345.3371875 104.88375 345.3371875 104.88375 346 104 C346.66 104 347.32 104 348 104 C348.226875 103.443125 348.45375 102.88625 348.6875 102.3125 C350.37367031 99.34162851 352.55387116 97.39177042 355 95 C358.51489873 91.12974888 361.90257622 87.21437357 365 83 C377.28235445 84.74346981 389.23184548 88.32745058 400.375 93.7890625 C403.13457937 95.10476181 403.13457937 95.10476181 406.640625 96.3359375 C411.82264365 98.24695893 416.77060311 100.61885381 421.75 103 C423.14798828 103.65742188 423.14798828 103.65742188 424.57421875 104.328125 C425.47269531 104.75609375 426.37117187 105.1840625 427.296875 105.625 C428.10479492 106.00914062 428.91271484 106.39328125 429.74511719 106.7890625 C432.01936594 108.01040007 433.94893373 109.44046703 436 111 C437.66629511 111.66759481 439.3329857 112.33420306 441 113 C442.7984234 114.12367036 444.56726911 115.29537104 446.3125 116.5 C450.50133615 119.3510944 454.7269257 122.08590282 459.04956055 124.72924805 C466.11586099 129.0558089 472.68766611 133.60726871 479 139 C479.71671875 139.56074219 480.4334375 140.12148438 481.171875 140.69921875 C489.27538357 147.23381495 493.115582 155.64741459 496.7265625 165.23828125 C497.87859054 168.05817404 497.87859054 168.05817404 499.8984375 170.25 C502.82186623 174.0754532 504.29626365 178.21186447 506 182.6875 C506.33 183.53505859 506.66 184.38261719 507 185.25585938 C507.66907697 186.97428948 508.33458162 188.69411457 508.99658203 190.4152832 C509.99299505 192.98195587 511.02059704 195.53424408 512.0546875 198.0859375 C514.18443517 203.39000849 516.05005747 208.77055394 517.88671875 214.18164062 C519.0097739 217.43026873 520.08268404 220.12402605 522 223 C522.76009131 225.33094669 523.39110509 227.62842337 524 230 C524.2466178 230.80879095 524.4932356 231.6175819 524.74732667 232.45088166 C527.76858379 243.42161714 527.40867965 254.33850919 527.36076355 265.633255 C527.36207733 267.9282034 527.36471085 270.22315136 527.36854553 272.51809692 C527.37525577 278.81404207 527.36325967 285.10983337 527.34821819 291.40575899 C527.33494505 297.59242839 527.33898009 303.77910112 527.34104129 309.96578051 C527.34475996 322.54045507 527.33491873 335.11508249 527.31672668 347.68974304 C527.29217212 364.69238976 527.28641543 381.69495596 527.28381348 398.69763184 C527.26806737 439.56926413 527.22618398 480.44088298 527.1875 521.3125 C527.125625 612.619375 527.06375 703.92625 527 798 C207.23 798 -112.54 798 -442 798 C-440.08704984 763.56689721 -440.08704984 763.56689721 -433.9453125 748.39453125 C-432.87049538 745.6719573 -432.3613853 743.07107002 -431.875 740.1875 C-431.62363281 738.72376953 -431.62363281 738.72376953 -431.3671875 737.23046875 C-431.18542969 736.12638672 -431.18542969 736.12638672 -431 735 C-430.34 735 -429.68 735 -429 735 C-428.93941406 734.40832031 -428.87882812 733.81664062 -428.81640625 733.20703125 C-428.73261719 732.41683594 -428.64882813 731.62664063 -428.5625 730.8125 C-428.48128906 730.03519531 -428.40007812 729.25789062 -428.31640625 728.45703125 C-428 726 -428 726 -427.47973633 723.84765625 C-426.86659982 720.2081528 -426.93478724 716.65532505 -427.0078125 712.98046875 C-427.02536182 711.38347026 -427.04226682 709.78646458 -427.05859375 708.18945312 C-427.08919958 705.70625147 -427.12431898 703.22342536 -427.17138672 700.74047852 C-427.352571 690.6257131 -426.85503451 681.26553106 -424.70068359 671.36254883 C-424.07934393 668.38076791 -423.70651976 665.533996 -423.5 662.5 C-423.18461447 658.64457279 -422.23289009 655.55032252 -420.75390625 651.9921875 C-419.94765058 649.86166734 -419.45912786 647.79254962 -419 645.5625 C-414.69991238 625.11086375 -403.13884578 604.77319904 -391 588 C-389.74737539 586.21016732 -388.49732872 584.4185274 -387.25 582.625 C-386.1725047 581.0792474 -385.0895703 579.53726503 -384 578 C-383.22462891 576.90558594 -383.22462891 576.90558594 -382.43359375 575.7890625 C-381 574 -381 574 -378.8125 572.75 C-374.16213805 569.85644145 -368.89984589 566.26906037 -367.3828125 560.7578125 C-367.23826014 556.11607563 -368.42952897 552.25492621 -370.20703125 548.015625 C-371.61069332 544.4476958 -372.26995033 540.75281729 -373 537 C-373.18691406 536.19820312 -373.37382812 535.39640625 -373.56640625 534.5703125 C-375.0515476 527.40424584 -375.18181634 520.35236091 -375.1875 513.0625 C-375.1887085 511.55115479 -375.1887085 511.55115479 -375.18994141 510.00927734 C-375.15603416 505.51619003 -374.98718281 501.39924109 -374 497 C-373.34 497 -372.68 497 -372 497 C-371.97421875 496.28457031 -371.9484375 495.56914063 -371.921875 494.83203125 C-371.45986999 486.71544331 -369.61565569 479.6686269 -367 472 C-366.7628125 471.20851563 -366.525625 470.41703125 -366.28125 469.6015625 C-363.43896487 460.22878893 -358.82791889 451.82168061 -353 444 C-352.38125 442.845 -351.7625 441.69 -351.125 440.5 C-349.19631954 437.02217861 -346.71013715 434.53324859 -343.83984375 431.80859375 C-342.00257084 430.00252718 -340.38959174 428.11059672 -338.75 426.125 C-332.65514423 419.06924354 -325.25793327 413.2941253 -317 409 C-316.26394531 408.54496094 -315.52789062 408.08992188 -314.76953125 407.62109375 C-311.45947687 405.68361481 -308.03835487 404.0489382 -304.5625 402.4375 C-303.59860352 401.98213867 -303.59860352 401.98213867 -302.61523438 401.51757812 C-295.94422826 398.408957 -289.49641061 396.61208971 -282.25 395.4375 C-276.9727488 394.73150822 -276.9727488 394.73150822 -272 393 C-269.83468017 392.75843878 -267.66770507 392.53162671 -265.5 392.3125 C-259.39237745 391.4918861 -255.2242539 389.93189179 -250.18359375 386.4375 C-247.84606533 384.89866197 -245.60634003 384.0171083 -243 383 C-237.44586697 380.41146279 -232.18414346 377.40588505 -226.9375 374.25 C-220.17918726 370.22609193 -213.33535454 366.4360987 -206.3671875 362.7890625 C-202.86531028 360.92843632 -199.43471083 358.98156394 -196 357 C-191.41047898 354.36996604 -186.91670679 351.9422755 -182.01171875 349.94140625 C-178.21745633 348.16583879 -174.6604845 345.95510183 -171.0625 343.81640625 C-165.90828052 340.75937556 -160.7204892 337.82479663 -155.40649414 335.05786133 C-147.86781613 331.13224039 -140.44011992 327.03279892 -133.0625 322.8125 C-131.78608643 322.08256836 -131.78608643 322.08256836 -130.48388672 321.33789062 C-126.31741544 318.94316204 -122.19027244 316.50325186 -118.09765625 313.984375 C-114.55630287 311.8362614 -110.9798834 310.02425422 -107.2109375 308.30859375 C-96.95368301 303.83989326 -96.95368301 303.83989326 -89.98583984 295.671875 C-89.02816885 290.29962579 -89.74798952 285.08465651 -90.59814453 279.73730469 C-91.24064017 275.36083985 -91.3371749 270.97785869 -91.5 266.5625 C-91.59003589 264.92304284 -91.68242381 263.28371289 -91.77734375 261.64453125 C-92.10571735 255.42861209 -92.09273443 249.22351055 -92 243 C-92.66 243 -93.32 243 -94 243 C-95.19388403 208.51072249 -95.19388403 208.51072249 -95 193 C-95.99 192.67 -96.98 192.34 -98 192 C-98.86625 191.071875 -98.86625 191.071875 -99.75 190.125 C-101.94640674 187.77694478 -101.94640674 187.77694478 -105.3125 186.75 C-111.27456566 184.40363868 -114.84721353 179.00807966 -117.9375 173.625 C-119 171 -119 171 -119 169 C-119.66 169 -120.32 169 -121 169 C-125.57974926 158.1751381 -126.08566963 147.90485609 -125.89135742 136.30883789 C-125.84639645 130.11993291 -126.43825011 124.33756715 -127.5 118.25 C-130.72135292 98.82591931 -131.66222822 75.74183925 -125 57 C-124.54947266 55.72189453 -124.54947266 55.72189453 -124.08984375 54.41796875 C-121.46660418 47.93368393 -117.60395426 41.97226706 -114 36 C-113.4225 34.948125 -112.845 33.89625 -112.25 32.8125 C-108.49944467 28.12430584 -103.71609317 24.67662774 -99 21 C-98.20722656 20.35417969 -97.41445313 19.70835937 -96.59765625 19.04296875 C-70.35238121 -2.12852728 -32.21602122 -4.25237872 0 0 Z " fill="#9BD2F9" transform="translate(497,226)"/>
<path d="M0 0 C0.62076416 0.31283936 1.24152832 0.62567871 1.88110352 0.94799805 C3.20692753 1.6062508 4.54614849 2.23886987 5.90234375 2.83203125 C12.12796905 5.83132482 16.39610065 10.16773512 21.1328125 15.06542969 C24.98373066 19.03500986 28.96974713 22.54615409 33.35546875 25.92578125 C36.56720182 28.4448806 39.65849367 31.08571295 42.75 33.75 C43.63933228 34.51473633 43.63933228 34.51473633 44.54663086 35.29492188 C47.54205025 37.8736048 50.5305664 40.46011726 53.515625 43.05078125 C59.95434057 48.62283327 66.4931342 53.99200665 73.23120117 59.19848633 C76.89469858 62.05529424 80.19180075 65.04484744 83.38671875 68.40625 C85.86900664 70.85848597 88.64533077 72.88616926 91.421875 74.9921875 C94.47841785 77.37258602 97.42749362 79.86177656 100.375 82.375 C104.48562944 85.87871097 108.62068938 89.34306377 112.8125 92.75 C116.7113854 95.92245551 120.52543572 99.16760062 124.28125 102.5078125 C125.76275004 103.7940239 127.31363721 104.99950658 128.875 106.1875 C131.05096331 108.04346871 131.78174347 109.47646861 133 112 C133.99 112.33 134.98 112.66 136 113 C138.13062192 116.19593288 138.78580041 118.67890155 139.75 122.375 C141.53178948 128.24250454 142.59072089 131.04020577 148 134 C150.28600579 134.59634934 152.5080586 135.04752329 154.8515625 135.34765625 C157.72424889 136.2199083 158.9461303 137.83659059 161 140 C166.52322586 143.96628503 172.24809799 147.29929278 178.515625 149.921875 C181.58994499 151.25601386 184.56769994 152.74582441 187.5625 154.25 C188.15683838 154.54849854 188.75117676 154.84699707 189.36352539 155.15454102 C192.52183586 156.74352545 195.67440088 158.34347636 198.82421875 159.94921875 C210.31538162 165.78248607 221.98959505 171.30954599 234 176 C233.67 176.66 233.34 177.32 233 178 C230.6400206 178.75021224 228.34324506 179.37415586 225.9375 179.9375 C225.21651123 180.11079834 224.49552246 180.28409668 223.75268555 180.46264648 C211.51776156 183.34873133 199.19524392 185.35035998 186.74145508 186.99829102 C185.87931396 187.11487061 185.01717285 187.2314502 184.12890625 187.3515625 C183.35619385 187.45291504 182.58348145 187.55426758 181.78735352 187.65869141 C179.98292883 187.82976253 179.98292883 187.82976253 179 189 C176.88851736 189.4767864 174.77620918 189.9501752 172.66015625 190.40625 C165.48644474 192.00743084 158.61461243 193.9978649 151.83984375 196.85546875 C149.71080772 197.71352591 147.55086573 198.49555077 145.37890625 199.23828125 C131.21906823 204.08114252 119.23408997 211.44020301 108.15942383 221.50854492 C103.09041856 226.07173119 103.09041856 226.07173119 100 226 C97.21484375 224.48046875 97.21484375 224.48046875 93.9375 222.1875 C67.51551662 204.35852251 41.51954256 198.81191937 10.02929688 198.81469727 C7.26937315 198.81251532 4.5098532 198.79431056 1.75 198.77539062 C-7.84139008 198.74594941 -17.12115629 199.13471944 -26.61230469 200.55688477 C-31.41969181 201.18569765 -36.16258107 201.18447784 -41 201 C-41 201.66 -41 202.32 -41 203 C-45.95 203.99 -45.95 203.99 -51 205 C-50.51515724 209.64586892 -50.51515724 209.64586892 -49 214 C-41.18215133 213.51517845 -33.50280217 212.6907589 -25.76367188 211.48901367 C-11.39693243 209.2733894 2.48416193 208.41061321 17 209 C18.86978516 209.06574219 18.86978516 209.06574219 20.77734375 209.1328125 C28.94264701 209.59709427 36.96224717 211.04041818 44.97802734 212.60595703 C46.83317521 212.96748911 48.69184536 213.31082307 50.55078125 213.65234375 C58.4519534 215.25150314 64.94087303 218.17148442 72 222 C73.80936222 222.90215407 75.62168892 223.79839724 77.4375 224.6875 C80.72006643 226.33139257 83.89352699 228.03801704 87 230 C87.62648438 230.36867188 88.25296875 230.73734375 88.8984375 231.1171875 C94.99925438 234.76860578 99.59871011 238.14587738 102.1953125 245.03125 C102.96779445 247.04093258 102.96779445 247.04093258 104.1171875 248.96875 C107.40598423 254.77010573 109.18120892 260.7012783 110.8125 267.125 C111.14096924 268.39573364 111.14096924 268.39573364 111.47607422 269.69213867 C112.74430824 274.93114086 113.21775056 279.61222902 113 285 C113.66 285 114.32 285 115 285 C115.5816307 302.34512237 115.14528428 319.17966171 112.6875 336.375 C112.52732895 337.51745178 112.52732895 337.51745178 112.36392212 338.6829834 C111.28467935 346.25662408 110.04849041 353.64082938 107.6628418 360.93359375 C106.72742407 363.8497542 106.14724117 366.80889165 105.5625 369.8125 C103.73220331 378.59025793 101.87015985 387.3755081 97 395 C96.63261719 395.66 96.26523437 396.32 95.88671875 397 C87.78673023 410.50877564 75.25411398 419.06319038 61 425 C59.7934375 425.50273438 58.586875 426.00546875 57.34375 426.5234375 C51.97981916 428.65178621 46.61018291 430.6239174 41 432 C40.34902344 432.16113281 39.69804687 432.32226562 39.02734375 432.48828125 C15.45177381 437.78570777 -13.06611426 439.2738676 -36.47216797 432.70214844 C-39.47104214 431.86916002 -42.48569583 431.11144648 -45.50390625 430.3515625 C-47.81580094 429.75791524 -50.12700496 429.1615716 -52.4375 428.5625 C-53.50403809 428.28656006 -54.57057617 428.01062012 -55.66943359 427.72631836 C-67.05969656 424.65153202 -77.32982791 420.13505887 -87.5 414.1875 C-88.86064575 413.39811035 -88.86064575 413.39811035 -90.2487793 412.59277344 C-109.00228825 401.63129801 -109.00228825 401.63129801 -116.28125 393.76171875 C-118.05896726 391.93955856 -119.92979927 390.47547202 -122 389 C-120.48031735 385.13171688 -118.20197271 383.56157817 -115 381 C-113.16542083 379.0091114 -111.40705151 376.96436596 -109.6484375 374.90625 C-107.85817559 372.83599452 -105.97421482 370.89524622 -104 369 C-110.65038539 368.52497247 -114.29103277 369.73627142 -120 373 C-120.82242188 373.40089844 -121.64484375 373.80179688 -122.4921875 374.21484375 C-129.03615988 377.48682994 -134.27435839 381.50564612 -139.5847168 386.48071289 C-143.43741917 389.97460573 -143.43741917 389.97460573 -146.25 390.1015625 C-148.68152256 388.57100589 -149.11274502 387.13052819 -150.0625 384.4375 C-150.51302734 383.19806641 -150.51302734 383.19806641 -150.97265625 381.93359375 C-151.31167969 380.96550781 -151.65070313 379.99742187 -152 379 C-152.48567569 377.75260363 -152.9713529 376.50520784 -153.45703125 375.2578125 C-155.15983641 370.72857517 -156.41453698 366.11870421 -157.625 361.4375 C-157.8415625 360.62603516 -158.058125 359.81457031 -158.28125 358.97851562 C-159.23386034 355.3356631 -160.0865884 351.76513222 -160.5625 348.02734375 C-160.75395089 345.02756635 -160.75395089 345.02756635 -162.375 343.125 C-164.12083333 341.80416667 -164.12083333 341.80416667 -167 341 C-167.72381987 347.82458734 -168.14300514 354.63974158 -168.25 361.5 C-168.27126953 362.18191406 -168.29253906 362.86382813 -168.31445312 363.56640625 C-168.34386941 367.79394631 -167.76873697 369.84842532 -165 373 C-164.12109375 375.11328125 -164.12109375 375.11328125 -163.4375 377.3125 C-163.18871094 378.1065625 -162.93992188 378.900625 -162.68359375 379.71875 C-162.34521484 380.84796875 -162.34521484 380.84796875 -162 382 C-161.67 383.093125 -161.34 384.18625 -161 385.3125 C-158.85046732 393.23890177 -156.84413246 401.14401162 -155.47265625 409.24609375 C-155.15834629 411.07740387 -154.81203737 412.90351691 -154.43359375 414.72265625 C-151.08949446 431.72377644 -153.21506347 449.81907534 -154 467 C-154.66 467 -155.32 467 -156 467 C-155.96519531 467.65484375 -155.93039062 468.3096875 -155.89453125 468.984375 C-155.58742898 479.33810867 -157.48920751 488.21717447 -163 497 C-163.70545994 498.65783085 -164.40998408 500.31607327 -165.10742188 501.97729492 C-166.80586537 505.82620203 -168.78718149 509.53085775 -170.75 513.25 C-171.19102051 514.08611816 -171.63204102 514.92223633 -172.08642578 515.78369141 C-176.4711645 524.01284662 -181.16426422 531.7081742 -187 539 C-188.07390661 540.55468231 -189.13638625 542.11731773 -190.1875 543.6875 C-193.41361532 548.33669831 -196.98438946 552.48986984 -200.828125 556.63671875 C-202.71264934 558.68732527 -204.48139811 560.78803583 -206.25 562.9375 C-209.41836635 566.58186505 -212.95261318 569.69281868 -216.625 572.8125 C-217.17575195 573.28099365 -217.72650391 573.7494873 -218.29394531 574.23217773 C-225.37623474 580.13301834 -229.45590303 581.34788636 -238.625 581.49609375 C-243.4413191 582.21519695 -245.82388868 584.43185157 -248.6875 588.25 C-250.46880724 591.74764572 -250.46880724 591.74764572 -252 599 C-283.35 599 -314.7 599 -347 599 C-347 591.05942686 -346.7198649 584.00557713 -345.6875 576.25 C-345.56955078 575.26128906 -345.45160156 574.27257812 -345.33007812 573.25390625 C-344.59930414 567.64006301 -343.32328134 563.19713195 -341 558 C-340.27460348 555.04483155 -339.78370936 552.06742528 -339.3125 549.0625 C-339.18294922 548.28326172 -339.05339844 547.50402344 -338.91992188 546.70117188 C-338.6053481 544.80207832 -338.30154118 542.90120644 -338 541 C-337.34 541 -336.68 541 -336 541 C-334.52734375 543.15234375 -334.52734375 543.15234375 -332.9375 545.9375 C-331.22531095 549.15830337 -331.22531095 549.15830337 -329 552 C-326.67182036 552.36760731 -324.3381615 552.70241581 -322 553 C-322.39832031 552.15179687 -322.79664063 551.30359375 -323.20703125 550.4296875 C-328.37544697 538.98623664 -331.79129585 527.71934816 -331 515 C-331.66 515 -332.32 515 -333 515 C-333.342363 499.34435461 -333.14597061 484.37405875 -330 469 C-329.34 469 -328.68 469 -328 469 C-328.04769531 467.85660156 -328.09539062 466.71320313 -328.14453125 465.53515625 C-328.14145014 460.86932296 -327.08453007 456.8607614 -325.6875 452.4375 C-325.47416016 451.72142578 -325.26082031 451.00535156 -325.04101562 450.26757812 C-323.64803156 445.69775876 -321.90778171 441.38437433 -320 437 C-319.19278655 434.71376321 -318.40108106 432.4219916 -317.625 430.125 C-315.59064042 424.35893867 -313.20185955 419.19527534 -310 414 C-309.51917969 413.19820312 -309.03835938 412.39640625 -308.54296875 411.5703125 C-307.77919922 410.29800781 -307.77919922 410.29800781 -307 409 C-306.27103516 407.77603516 -306.27103516 407.77603516 -305.52734375 406.52734375 C-301.64937762 400.2101655 -297.30915082 394.56314511 -292.4921875 388.93359375 C-289.51152129 385.4250039 -286.69121133 381.80634881 -283.88671875 378.15625 C-281.76325531 375.72943464 -279.67615402 373.80395756 -277 372 C-272.79591308 373.40136231 -271.75513326 376.39118167 -269.6875 380.0625 C-267.23357283 384.30761489 -264.83749599 388.42471277 -261.75 392.25 C-255.0053782 401.05136086 -252.68555132 411.29665985 -250.31835938 421.93969727 C-248.9440809 427.7421526 -247.88648538 431.40142549 -243 435 C-239.81849108 435.87989974 -239.81849108 435.87989974 -237 436 C-236.80309415 431.07735363 -237.43010762 427.62246089 -239 423 C-239.26426197 421.18952441 -239.51231643 419.37665621 -239.75 417.5625 C-241.50111191 406.62144418 -246.04531518 396.81872542 -252.21484375 387.6796875 C-254.11235595 384.83134314 -255.80828092 381.91220066 -257.5 378.9375 C-259.70823046 375.10032823 -262.03140204 371.46224913 -264.625 367.875 C-273 356.15378104 -273 356.15378104 -273 349 C-273.66 349 -274.32 349 -275 349 C-275.46246708 347.66809481 -275.91969155 346.3343693 -276.375 345 C-276.75785156 343.88625 -276.75785156 343.88625 -277.1484375 342.75 C-277.42945313 341.8425 -277.71046875 340.935 -278 340 C-278.35707031 338.86691406 -278.71414063 337.73382812 -279.08203125 336.56640625 C-280.57076456 330.45257936 -280.33976999 324.1927541 -280.3125 317.9375 C-280.30831055 316.64215332 -280.30412109 315.34680664 -280.29980469 314.01220703 C-280.14288691 300.73596174 -277.91440423 289.34766081 -273 277 C-272.63003906 275.96230469 -272.26007813 274.92460938 -271.87890625 273.85546875 C-267.45737864 261.63465638 -260.89103488 251.27138838 -253 241 C-252.52046875 240.35289062 -252.0409375 239.70578125 -251.546875 239.0390625 C-247.24385926 233.57373791 -241.65744265 229.9526666 -236 226 C-234.14519197 224.60501903 -232.29101446 223.20919928 -230.4375 221.8125 C-216.16502611 211.50572055 -198.63521209 205.84550524 -181.09179688 205.52148438 C-176.46426873 205.35040353 -173.79282144 204.59186344 -170 202 C-168.33029024 201.29225457 -166.66018751 200.58537423 -164.98583984 199.88867188 C-160.96815392 198.09074014 -157.15585389 195.88921494 -153.3125 193.75 C-152.43198975 193.26273438 -151.55147949 192.77546875 -150.64428711 192.2734375 C-143.1443796 188.11011115 -135.68886132 183.87471854 -128.375 179.390625 C-126 178 -126 178 -122.9375 176.75 C-118.3815988 174.86821472 -114.25810046 172.26021412 -110.02734375 169.75 C-107.46709039 168.27000838 -104.90824281 166.91601843 -102.25 165.625 C-97.17361647 163.14753052 -92.28987218 160.37290726 -87.38256836 157.58081055 C-82.41028407 154.76327943 -77.38043568 152.0783839 -72.3125 149.4375 C-67.22465334 146.78164863 -62.293116 144.00672888 -57.4375 140.9375 C-52.78176697 138.00375042 -48.06537459 135.4648852 -43.125 133.0625 C-36.40806836 129.79291227 -30.03726316 126.1338999 -23.671875 122.23046875 C-18.99234813 119.36369789 -14.20490884 116.69471187 -9.4140625 114.01953125 C-8.28742188 113.35308594 -7.16078125 112.68664062 -6 112 C-5.21101318 111.66734131 -4.42202637 111.33468262 -3.60913086 110.99194336 C-0.77276765 109.58953639 0.97233543 108.44587718 3 106 C4.2199261 100.63479046 3.93798866 95.38838711 3.6875 89.9375 C3.64770335 88.37182419 3.6112002 86.80606142 3.57788086 85.24023438 C3.45814476 80.48933235 3.24402907 75.74597499 3 71 C2.94531555 69.91733856 2.94531555 69.91733856 2.88952637 68.81280518 C2.38060419 58.96956794 1.76326702 49.12101543 0.71264648 39.3190918 C-0.14542347 31.14877356 -0.11273045 23.01522648 -0.0625 14.8125 C-0.05747088 13.36914219 -0.05291049 11.92578267 -0.04882812 10.48242188 C-0.0379438 6.98824495 -0.0207585 3.49413388 0 0 Z " fill="#283853" transform="translate(414,425)"/>
<path d="M0 0 C4.30930822 0.85905003 8.42981037 2.22054579 12.546875 3.73828125 C13.28599121 4.00487549 14.02510742 4.27146973 14.78662109 4.54614258 C20.74825879 6.73060407 26.5003929 9.26439302 32.234375 11.98828125 C33.36875 12.46265625 34.503125 12.93703125 35.671875 13.42578125 C43.58997487 16.89863207 51.19642429 20.83388992 58.5546875 25.37109375 C61.07504711 26.8921271 63.63316196 28.32657871 66.20898438 29.75097656 C74.32462402 34.2641293 81.78120689 39.46121277 89.234375 44.98828125 C90.02972656 45.56835938 90.82507813 46.1484375 91.64453125 46.74609375 C93.53014677 48.13396491 95.38391242 49.55403361 97.234375 50.98828125 C98.07427979 51.62407104 98.07427979 51.62407104 98.93115234 52.27270508 C103.67878073 56.06740202 106.51436599 60.13046291 109.421875 65.42578125 C110.0396582 66.51342773 110.0396582 66.51342773 110.66992188 67.62304688 C111.48278303 69.05682574 112.2887828 70.49451929 113.08740234 71.9362793 C114.16478068 73.86377289 115.28438166 75.76070439 116.41015625 77.66015625 C118.08100003 80.70846224 119.21944736 83.48867365 120.234375 86.80078125 C122.68777607 94.4772432 125.55668402 101.76887578 129.234375 108.9375 C131.14462969 112.85501451 132.68099974 116.91904725 134.234375 120.98828125 C134.55277344 121.808125 134.87117188 122.62796875 135.19921875 123.47265625 C137.54419736 129.6882622 139.41624367 135.98512327 141.23364258 142.3684082 C142.70326435 147.43180626 144.43990545 152.32953239 146.359375 157.23828125 C148.63878935 163.08672198 150.32992571 168.85824337 151.59375 175.0234375 C152.1979529 178.05334192 152.1979529 178.05334192 153.25938225 181.18201542 C154.27769357 185.15739226 154.50876298 188.78584869 154.47488403 192.8533783 C154.47744731 193.99553554 154.47744731 193.99553554 154.48006237 195.16076666 C154.48333967 197.69573578 154.47238282 200.23043639 154.46142578 202.76538086 C154.46086129 204.58905023 154.46117898 206.41272005 154.46231079 208.23638916 C154.46288381 213.17593976 154.45113769 218.11539292 154.43716288 223.05492091 C154.42464707 228.22122498 154.42348434 233.38753137 154.42111206 238.55384827 C154.4148998 248.33198522 154.39849239 258.11007738 154.37841308 267.88819462 C154.35604621 279.02235891 154.34505866 290.15652535 154.33502221 301.29070652 C154.31412596 324.18992292 154.27895488 347.08909957 154.234375 369.98828125 C153.49469482 370.39095215 152.75501465 370.79362305 151.99291992 371.20849609 C150.52495972 372.00827881 150.52495972 372.00827881 149.02734375 372.82421875 C147.57751099 373.6138501 147.57751099 373.6138501 146.09838867 374.41943359 C143.57275881 375.80292157 141.05702864 377.2019708 138.546875 378.61328125 C135.1332708 380.51854871 131.67637674 382.29620349 128.15625 383.99609375 C126.11965445 385.01532703 126.11965445 385.01532703 123.8203125 386.48828125 C121.27497565 387.96473042 118.89203754 388.9246518 116.109375 389.86328125 C111.25054826 391.57238338 106.60129298 393.5605052 101.9375 395.7421875 C95.90344646 398.52378155 90.08098869 400.7555828 83.671875 402.48828125 C82.88466064 402.70331299 82.09744629 402.91834473 81.28637695 403.13989258 C71.16748952 405.86401141 60.99701708 408.00500232 50.62109375 409.48632812 C48.50853317 409.79943543 46.39909912 410.13554408 44.29589844 410.50634766 C35.84320531 411.96715484 27.61541432 412.3369797 19.046875 412.30078125 C18.01148087 412.29804703 18.01148087 412.29804703 16.95516968 412.29525757 C-7.61936953 412.1870773 -31.15208278 408.51049223 -54.546875 400.96875 C-60.87981652 399.03966223 -67.3318661 397.54097274 -73.765625 395.98828125 C-73.765625 395.32828125 -73.765625 394.66828125 -73.765625 393.98828125 C-74.69375 393.92640625 -75.621875 393.86453125 -76.578125 393.80078125 C-81.05578168 393.17012538 -84.7814673 391.26461655 -88.83203125 389.33203125 C-93.36904138 387.25382687 -98.05309567 385.61989198 -102.765625 383.98828125 C-102.59595679 376.52288 -98.6078992 371.1845179 -94.765625 364.98828125 C-91.00270601 358.84474005 -87.60518359 353.15656905 -85.578125 346.2265625 C-83.70503582 341.06656203 -80.6513298 335.87398605 -76.765625 331.98828125 C-76.43229167 328.98828125 -76.43229167 328.98828125 -76.765625 325.98828125 C-78.58662647 323.78907629 -78.58662647 323.78907629 -81.140625 323.55078125 C-83.90755114 323.73840197 -83.90755114 323.73840197 -85.61328125 325.96484375 C-88.31801747 329.76423729 -90.57999446 333.71909297 -92.828125 337.80078125 C-93.26189453 338.56970703 -93.69566406 339.33863281 -94.14257812 340.13085938 C-96.15953319 343.76874636 -97.973996 347.3335318 -99.38671875 351.25 C-100.59340637 354.52138826 -101.88926878 357.07801447 -103.765625 359.98828125 C-104.9349344 361.98673731 -106.10149895 363.98680138 -107.265625 365.98828125 C-110.37226927 371.32952929 -113.48609182 376.64265686 -116.890625 381.80078125 C-117.40882813 382.59097656 -117.92703125 383.38117188 -118.4609375 384.1953125 C-119.10675781 385.08283203 -119.10675781 385.08283203 -119.765625 385.98828125 C-120.095625 385.98828125 -120.425625 385.98828125 -120.765625 385.98828125 C-120.93862158 373.55174913 -120.93862158 373.55174913 -120.265625 368.61328125 C-119.40064405 362.11983268 -119.68811944 355.52458388 -119.765625 348.98828125 C-124.38070274 347.94613434 -124.38070274 347.94613434 -128.765625 348.98828125 C-128.81460938 350.07882812 -128.86359375 351.169375 -128.9140625 352.29296875 C-129.40799978 362.52812843 -130.25110926 372.66652851 -131.50390625 382.83642578 C-131.76059697 384.94694073 -131.9987698 387.05891568 -132.234375 389.171875 C-133.03328505 395.88937701 -133.97193502 401.83027525 -136.765625 407.98828125 C-137.60133227 410.00813401 -138.43446934 412.02905128 -139.265625 414.05078125 C-140.09515323 416.03154576 -140.92864254 418.01065502 -141.765625 419.98828125 C-142.22195313 421.08914063 -142.67828125 422.19 -143.1484375 423.32421875 C-144.94572212 427.50468442 -147.02243764 431.52550967 -149.140625 435.55078125 C-149.51445313 436.27974609 -149.88828125 437.00871094 -150.2734375 437.75976562 C-152.67605475 442.33049809 -155.4184346 446.03009577 -158.765625 449.98828125 C-159.75163191 451.734417 -160.7374473 453.48077312 -161.70214844 455.23876953 C-163.56012357 458.29530071 -165.94281763 460.83345244 -168.390625 463.42578125 C-168.92494141 463.99288818 -169.45925781 464.55999512 -170.00976562 465.14428711 C-181.49797909 477.14084375 -196.32224521 486.81092933 -211.765625 492.98828125 C-212.52746094 493.32730469 -213.28929687 493.66632813 -214.07421875 494.015625 C-219.26128099 496.23321308 -224.49294998 497.80743459 -229.953125 499.17578125 C-230.61820068 499.34263428 -231.28327637 499.5094873 -231.96850586 499.68139648 C-235.2054321 500.46358328 -238.39189298 501.07614571 -241.69140625 501.5390625 C-244.63270274 501.6562135 -244.63270274 501.6562135 -245.765625 502.98828125 C-266.41669306 505.83599798 -291.74870218 504.99956313 -309.765625 492.98828125 C-310.5634561 490.26040287 -311.20838057 487.64005856 -311.765625 484.86328125 C-312.6826892 480.43339486 -313.61724017 476.17469676 -315.2890625 471.9609375 C-316.88976403 467.89374619 -317.68507953 463.85220335 -318.390625 459.55078125 C-318.80232335 454.8922063 -318.80232335 454.8922063 -320.765625 450.98828125 C-321.3371925 448.41622752 -321.79432302 445.83044212 -322.265625 443.23828125 C-322.54512257 441.02982519 -322.54512257 441.02982519 -323.765625 439.98828125 C-325.49068836 432.9263031 -326.1021964 425.78245089 -326.51953125 418.54296875 C-326.48575915 416.05613153 -326.48575915 416.05613153 -327.765625 414.98828125 C-327.84316108 413.3686386 -327.91377214 411.7484373 -327.95410156 410.12744141 C-328.53191961 390.03679958 -332.64984398 365.95619817 -341.640625 347.80078125 C-343.44315147 344.03923888 -344.70801018 341.11690511 -343.7734375 336.9453125 C-336.44877847 322.72184671 -315.98349286 315.50701516 -301.86694336 310.73706055 C-299.95166355 310.05457383 -298.07754917 309.2592551 -296.2109375 308.453125 C-281.37034852 302.14335077 -265.76133937 299.88744863 -249.765625 298.98828125 C-249.765625 298.32828125 -249.765625 297.66828125 -249.765625 296.98828125 C-246.68310411 296.48318486 -243.59948975 295.98510126 -240.515625 295.48828125 C-239.64292969 295.34519531 -238.77023437 295.20210937 -237.87109375 295.0546875 C-237.02675781 294.91933594 -236.18242188 294.78398438 -235.3125 294.64453125 C-234.53745117 294.51884766 -233.76240234 294.39316406 -232.96386719 294.26367188 C-230.765625 293.98828125 -230.765625 293.98828125 -226.765625 293.98828125 C-226.765625 293.32828125 -226.765625 292.66828125 -226.765625 291.98828125 C-223.795625 291.65828125 -220.825625 291.32828125 -217.765625 290.98828125 C-217.765625 290.32828125 -217.765625 289.66828125 -217.765625 288.98828125 C-216.755 288.63765625 -215.744375 288.28703125 -214.703125 287.92578125 C-208.57590911 285.28750318 -204.68986094 280.08425246 -200.453125 275.11328125 C-196.2811902 270.28948164 -191.59789891 266.13749689 -186.765625 261.98828125 C-185.95996094 261.28316406 -185.15429688 260.57804687 -184.32421875 259.8515625 C-172.26205728 249.68681968 -155.7241414 242.3045002 -139.765625 241.98828125 C-139.07903809 241.9639502 -138.39245117 241.93961914 -137.68505859 241.91455078 C-118.51291766 241.27188689 -101.52867272 244.65230367 -83.2487793 250.23828125 C-81.53897247 250.75470309 -79.82384725 251.25373141 -78.10473633 251.73828125 C-73.51294251 253.04669333 -69.5001202 254.37643897 -65.453125 256.98828125 C-64.67324219 257.48328125 -63.89335938 257.97828125 -63.08984375 258.48828125 C-62.32285156 258.98328125 -61.55585937 259.47828125 -60.765625 259.98828125 C-60.00378906 260.44460938 -59.24195313 260.9009375 -58.45703125 261.37109375 C-54.94162549 263.48339852 -51.46734056 265.6485967 -48.015625 267.86328125 C-47.33113281 268.28480469 -46.64664062 268.70632813 -45.94140625 269.140625 C-41.06751024 272.2965933 -41.06751024 272.2965933 -39.65234375 275.5390625 C-39.79256855 278.57081949 -40.5789107 279.83259165 -42.328125 282.30078125 C-49.77219775 293.8996853 -55.86402683 310.14841814 -54.765625 323.98828125 C-52.00339222 326.75051403 -49.55855883 326.56684416 -45.765625 326.98828125 C-45.61867188 325.82425781 -45.61867188 325.82425781 -45.46875 324.63671875 C-43.76282915 312.31291122 -40.89916357 300.87634133 -34.765625 289.98828125 C-34.20875 288.95703125 -33.651875 287.92578125 -33.078125 286.86328125 C-32.645 286.24453125 -32.211875 285.62578125 -31.765625 284.98828125 C-31.105625 284.98828125 -30.445625 284.98828125 -29.765625 284.98828125 C-29.58 284.32828125 -29.394375 283.66828125 -29.203125 282.98828125 C-25.06584507 274.35395793 -17.43626946 269.28973774 -9.765625 263.98828125 C-8.52425781 263.03888672 -8.52425781 263.03888672 -7.2578125 262.0703125 C-1.15094158 257.46561401 4.85022118 254.9189584 12.234375 252.98828125 C13.21289429 252.72337891 13.21289429 252.72337891 14.21118164 252.453125 C26.90725554 249.27875224 44.62689093 248.3397897 56.234375 254.98828125 C74.26160584 266.73662119 87.6449493 280.71389668 94.078125 301.46875 C95.07944147 305.04545262 95.07944147 305.04545262 97.234375 307.98828125 C100.29994098 308.72171553 100.29994098 308.72171553 103.234375 308.98828125 C103.67106478 298.37833702 103.29048011 291.32731457 96.234375 282.98828125 C94.72496442 280.69917514 93.48464921 278.44252321 92.234375 275.98828125 C92.564375 275.32828125 92.894375 274.66828125 93.234375 273.98828125 C99.38671875 273.890625 99.38671875 273.890625 101.234375 273.98828125 C102.81710101 275.57100726 102.58173247 277.36862128 102.796875 279.55078125 C102.92255859 280.79021484 102.92255859 280.79021484 103.05078125 282.0546875 C103.11136719 282.69277344 103.17195313 283.33085938 103.234375 283.98828125 C105.08162552 284.67987526 105.08162552 284.67987526 107.234375 284.98828125 C108.224375 284.32828125 109.214375 283.66828125 110.234375 282.98828125 C110.39478538 273.20324828 105.34774342 268.31602457 98.81347656 261.5078125 C95.67483138 258.27803853 92.4626641 255.1285261 89.234375 251.98828125 C74.93542486 237.79524926 74.93542486 237.79524926 73.9921875 228.63671875 C73.98552838 226.7521881 74.0976784 224.86785943 74.234375 222.98828125 C73.574375 222.98828125 72.914375 222.98828125 72.234375 222.98828125 C72.18458667 218.98644875 72.14847336 214.9847386 72.12451172 210.98266602 C72.11451257 209.62391007 72.10090876 208.26517531 72.08349609 206.90649414 C72.05897906 204.94296829 72.04890538 202.97927924 72.0390625 201.015625 C72.02858887 199.83734131 72.01811523 198.65905762 72.00732422 197.44506836 C72.25251576 193.71209308 73.12041578 190.5502493 74.234375 186.98828125 C76.37455058 174.78928042 75.20169784 162.53079743 73.421875 150.36328125 C73.1734082 148.53410156 73.1734082 148.53410156 72.91992188 146.66796875 C71.95600524 139.85871611 70.68603874 133.2521119 68.90527344 126.60839844 C68.24695837 124.03742415 67.74726888 121.47782173 67.296875 118.86328125 C66.45639544 114.508069 65.03345062 110.63188509 63.296875 106.55859375 C62.18984434 103.88055634 61.27786585 101.17359972 60.359375 98.42578125 C58.13911632 92.22315384 54.91042271 86.66432896 50.234375 81.98828125 C48.03186508 81.52821779 48.03186508 81.52821779 45.609375 81.36328125 C44.79210937 81.28851563 43.97484375 81.21375 43.1328125 81.13671875 C42.19308594 81.06324219 42.19308594 81.06324219 41.234375 80.98828125 C41.234375 82.63828125 41.234375 84.28828125 41.234375 85.98828125 C33.94866071 90.55970982 33.94866071 90.55970982 29.234375 89.98828125 C28.821875 88.93640625 28.409375 87.88453125 27.984375 86.80078125 C25.8157996 81.83112929 23.56803846 78.37938537 18.484375 76.17578125 C16.875625 75.58796875 16.875625 75.58796875 15.234375 74.98828125 C15.75984468 70.50208387 16.87338951 67.50670722 19.234375 63.67578125 C22.14379746 58.59473246 23.04353831 54.80880028 23.234375 48.98828125 C20.90871221 47.73940525 19.46721171 47.00022159 16.796875 46.86328125 C9.04053617 50.26850318 6.17565486 62.78214559 3.234375 69.98828125 C2.8734375 70.85710937 2.5125 71.7259375 2.140625 72.62109375 C-0.73755284 79.65406056 -3.24574195 86.82107292 -5.765625 93.98828125 C-6.425625 93.65828125 -7.085625 93.32828125 -7.765625 92.98828125 C-8.14238988 90.3090643 -8.41790907 87.68068201 -8.640625 84.98828125 C-9.73804101 73.76342881 -9.73804101 73.76342881 -16.203125 64.92578125 C-18.91521859 63.93355189 -20.90142213 63.74277815 -23.765625 63.98828125 C-24.09103872 68.62542681 -24.26552597 71.67946068 -21.765625 75.67578125 C-19.70673038 79.08582547 -19.55857242 80.19016053 -19.765625 83.98828125 C-20.61125 84.04886719 -21.456875 84.10945313 -22.328125 84.171875 C-29.87748949 84.71796097 -29.87748949 84.71796097 -37.390625 85.61328125 C-40.765625 85.98828125 -40.765625 85.98828125 -43.765625 84.98828125 C-44.4822457 82.66980251 -45.14804527 80.33508422 -45.765625 77.98828125 C-46.425625 77.32828125 -47.085625 76.66828125 -47.765625 75.98828125 C-48.4295166 72.14821174 -48.51258521 68.25212952 -48.703125 64.36328125 C-48.78369141 63.29464844 -48.86425781 62.22601563 -48.94726562 61.125 C-49.30967852 53.84989668 -48.3621087 49.64115125 -43.765625 43.98828125 C-42.79689453 42.64056641 -42.79689453 42.64056641 -41.80859375 41.265625 C-38.10470202 36.59482258 -34.35548123 32.63213484 -29.76953125 28.8359375 C-26.67610455 25.98371366 -24.2601101 22.64747789 -21.6953125 19.32421875 C-19.54769399 16.72447003 -17.25283063 14.77373292 -14.609375 12.70703125 C-11.30504326 9.626722 -8.83861309 5.78600034 -6.26953125 2.0859375 C-3.765625 -0.01171875 -3.765625 -0.01171875 0 0 Z " fill="#283853" transform="translate(869.765625,322.01171875)"/>
<path d="M0 0 C0 104.94 0 209.88 0 318 C-122.1 318 -244.2 318 -370 318 C-370 265 -370 265 -359 251 C-356.68392089 247.02079139 -356.68392089 247.02079139 -354.5234375 242.95703125 C-353.35637845 240.69173972 -352.14701515 238.51457863 -350.8515625 236.32421875 C-346.1369714 228.31534418 -342.42766724 220.41496799 -339.3125 211.6640625 C-336.08811049 202.66264177 -331.70577701 194.64974124 -326.80053711 186.48217773 C-323.43408629 180.84595616 -320.51475901 175.10289533 -317.6484375 169.1953125 C-316.07540373 166.14616172 -314.34116381 163.35133925 -312.4375 160.5 C-306.43091179 151.31581936 -302.84661004 140.85107627 -299.09155273 130.59301758 C-297.99521408 127.60199067 -296.85350804 124.67646427 -295.5390625 121.7734375 C-293.34080572 116.71425074 -292.01460982 111.37225106 -290.5625 106.0625 C-290.25683105 104.95455078 -289.95116211 103.84660156 -289.63623047 102.70507812 C-288.74904206 99.47227077 -287.87164697 96.2370292 -287 93 C-286.77070801 92.14905762 -286.54141602 91.29811523 -286.30517578 90.42138672 C-284.32090361 82.98470717 -282.54996022 75.69944308 -282 68 C-281.34 68 -280.68 68 -280 68 C-279.87044922 66.63294922 -279.87044922 66.63294922 -279.73828125 65.23828125 C-278.82947703 56.85893963 -277.40069693 48.76297377 -275.4375 40.5625 C-275.21553955 39.63284424 -274.9935791 38.70318848 -274.76489258 37.74536133 C-273.13945989 31.13945989 -273.13945989 31.13945989 -272 30 C-271.67945176 28.58958775 -271.39325589 27.17128557 -271.125 25.75 C-270.30854454 21.9498801 -269.25711541 19.21204886 -267 16 C-266.278125 14.906875 -265.55625 13.81375 -264.8125 12.6875 C-264.214375 11.800625 -263.61625 10.91375 -263 10 C-258.11890556 10.47853867 -255.10497035 11.39684807 -251 14 C-245.56273598 16.1164404 -240.06613638 18.06373262 -234.5625 20 C-233.45370483 20.39082764 -233.45370483 20.39082764 -232.32250977 20.78955078 C-227.23184378 22.57914623 -222.12854839 24.32156598 -217 26 C-217 26.66 -217 27.32 -217 28 C-216.1440625 27.96648438 -215.288125 27.93296875 -214.40625 27.8984375 C-210.82082079 28.0053425 -207.95421532 28.668089 -204.5 29.625 C-196.96998835 31.61296008 -189.37112671 33.23962317 -181.73950195 34.78411865 C-179.79603799 35.17816557 -177.85405085 35.57947422 -175.91210938 35.98095703 C-161.70820102 38.82730159 -147.68150191 39.23168806 -133.25 39.5625 C-131.47395047 39.6057985 -129.69790869 39.64941594 -127.921875 39.69335938 C-123.61466371 39.79924623 -119.30737095 39.9008297 -115 40 C-115 39.34 -115 38.68 -115 38 C-114.41847168 37.94054199 -113.83694336 37.88108398 -113.23779297 37.81982422 C-99.17243932 36.32550079 -85.96361283 33.68327555 -72.40917969 29.66992188 C-70.04232144 29.01176835 -67.67682471 28.47156378 -65.2734375 27.96484375 C-56.11814214 26.00385804 -47.48126709 21.89035274 -39 18 C-38.17371094 17.63261719 -37.34742188 17.26523437 -36.49609375 16.88671875 C-26.03891835 12.21371606 -15.68854816 7.34251526 -6.0859375 1.06640625 C-4 0 -4 0 0 0 Z " fill="#283852" transform="translate(1024,706)"/>
<path d="M0 0 C0.33 0 0.66 0 1 0 C0.42738097 6.78864002 -0.92423894 12.96509591 -2.8125 19.5 C-5.12903213 27.71637405 -7.21334331 35.93569233 -9.04296875 44.2734375 C-9.92629552 47.71300378 -11.04924555 50.87915502 -12.33325195 54.17871094 C-13.14860083 56.40591804 -13.61629925 58.59932358 -14 60.9375 C-14.91690037 65.82517051 -16.29739096 70.33308758 -18 75 C-18.32556885 75.91072266 -18.32556885 75.91072266 -18.65771484 76.83984375 C-19.40929236 78.93801861 -20.171928 81.03189356 -20.9375 83.125 C-21.17823242 83.79418457 -21.41896484 84.46336914 -21.66699219 85.15283203 C-22.91250305 88.50644861 -24.27665367 91.614294 -26.08203125 94.70703125 C-27.62647394 97.35869151 -28.74372581 99.69256495 -29.75 102.5625 C-31.93376161 108.21964623 -34.93365186 113.33661308 -37.98828125 118.55078125 C-39.73712628 121.54928641 -41.41752922 124.56879424 -43.0625 127.625 C-45.12774661 131.44766513 -47.28459033 135.19990513 -49.5 138.9375 C-53.99690275 146.64647614 -58.16020923 154.20212446 -60.89208984 162.73120117 C-64.86494773 175.06500069 -71.30245362 185.95841397 -78 197 C-78.60561768 197.99974854 -79.21123535 198.99949707 -79.83520508 200.02954102 C-80.44130615 201.00850342 -81.04740723 201.98746582 -81.671875 202.99609375 C-82.21811523 203.87966553 -82.76435547 204.7632373 -83.32714844 205.67358398 C-85.79421752 209.10450944 -88.3405053 210.91911085 -92 213 C-92.66 213 -93.32 213 -94 213 C-93.92894547 213.72830017 -93.85789093 214.45660034 -93.78468323 215.20697021 C-93.12248906 222.45661261 -92.86515248 229.61361752 -92.90234375 236.890625 C-92.90446617 238.49656525 -92.90446617 238.49656525 -92.90663147 240.13494873 C-92.91216519 243.50666266 -92.92470466 246.87830663 -92.9375 250.25 C-92.94252359 252.55598861 -92.94708498 254.86197829 -92.95117188 257.16796875 C-92.96211278 262.77866913 -92.97878318 268.38932956 -93 274 C-131.29451897 274.11435944 -169.58901229 274.20250512 -207.88366737 274.25532665 C-212.40120496 274.26158044 -216.91874221 274.26805202 -221.4362793 274.2746582 C-222.33566741 274.27596976 -223.23505553 274.27728131 -224.16169783 274.2786326 C-238.73850723 274.30040936 -253.31521837 274.33984333 -267.89196942 274.38576398 C-282.84091182 274.43246556 -297.78980265 274.46028203 -312.73881501 274.47044247 C-321.96865714 274.47731475 -331.19822161 274.4990462 -340.4279783 274.53958233 C-346.75088429 274.56594303 -353.07364603 274.57401622 -359.39660303 274.56750689 C-363.04872089 274.5642935 -366.70035243 274.56933573 -370.35238457 274.59602737 C-374.30580977 274.62471193 -378.25859416 274.61498513 -382.21211243 274.60127258 C-383.37454934 274.61583679 -384.53698625 274.630401 -385.73464853 274.64540654 C-386.78912374 274.6354513 -387.84359895 274.62549606 -388.93002796 274.61523914 C-389.84325536 274.61713775 -390.75648275 274.61903635 -391.6973837 274.62099248 C-394 274 -394 274 -395.73459786 271.63244599 C-396.15218057 270.76373881 -396.56976327 269.89503164 -397 269 C-397.65162109 267.64648438 -397.65162109 267.64648438 -398.31640625 266.265625 C-400.95513659 259.87973214 -402.28677344 254.32129827 -402.75 247.5 C-403.46892199 238.21625846 -407.28307063 233.19945512 -413 226 C-417.17313607 219.7985257 -420.38519665 213.24007994 -423.46313477 206.45092773 C-425.00099621 203.07121394 -426.62007537 199.85016575 -428.5625 196.6875 C-431.47406231 191.66888602 -433.06712421 186.16345213 -434.76977539 180.64526367 C-436.18885025 176.11694107 -437.89536708 171.9850312 -440.08935547 167.77685547 C-441.21888028 165.5729194 -442.11448725 163.31153329 -443 161 C-443.39058594 160.08863281 -443.78117187 159.17726563 -444.18359375 158.23828125 C-446.56664436 152.67782983 -448.66606705 147.17680108 -450.32421875 141.359375 C-452.49485543 133.78096716 -455.2753683 126.39232743 -458 119 C-458.29261719 118.19433594 -458.58523438 117.38867188 -458.88671875 116.55859375 C-459.97925101 113.00968196 -459.97925101 113.00968196 -462 110 C-462.32526705 106.63890715 -462.5135946 103.2766601 -462.71875 99.90625 C-462.6785989 97.10949868 -462.6785989 97.10949868 -464 96 C-466.346177 83.22636966 -466.346177 83.22636966 -463.375 78.3125 C-462.59125 77.549375 -461.8075 76.78625 -461 76 C-460.27683594 75.28263672 -460.27683594 75.28263672 -459.5390625 74.55078125 C-458 73.125 -458 73.125 -455 71 C-451.12504055 71.23074707 -449.14311595 73.46386063 -446.4375 76.0625 C-442.03625984 80.14612489 -437.46978764 83.7103688 -432.56640625 87.16796875 C-430.40574567 88.71035811 -428.3679867 90.32398776 -426.3125 92 C-421.30468746 95.79192389 -415.59148454 98.32317636 -409.9609375 101.046875 C-406.66053936 102.64925357 -403.48616446 104.40722709 -400.3125 106.25 C-391.39975918 111.15731265 -381.38242398 113.25065394 -371.5559082 115.60595703 C-368.61054797 116.31570936 -365.75606202 117.08530158 -362.89453125 118.0859375 C-359.88176372 119.03733777 -357.27282022 119.33300688 -354.125 119.5 C-350.67172899 119.68417445 -347.74342896 120.07087771 -344.39599609 120.99560547 C-339.74150309 122.18154569 -335.25398691 122.34775824 -330.46875 122.4140625 C-329.59222778 122.43342865 -328.71570557 122.4527948 -327.81262207 122.4727478 C-325.04184378 122.53202621 -322.27102275 122.57871987 -319.5 122.625 C-317.60935793 122.66322751 -315.71873239 122.70228195 -313.828125 122.7421875 C-309.2188859 122.8376845 -304.60956543 122.92190406 -300 123 C-300 122.34 -300 121.68 -300 121 C-298.92363281 120.81824219 -297.84726562 120.63648438 -296.73828125 120.44921875 C-275.55289227 116.82809736 -256.6578041 112.38331355 -238.72607422 100.15478516 C-237.22581366 99.15107477 -235.68043913 98.21544476 -234.12890625 97.29296875 C-222.83978381 90.33633324 -216.25542001 77.80422999 -211 66 C-210.49726562 64.96617187 -209.99453125 63.93234375 -209.4765625 62.8671875 C-207.39306518 57.9744803 -206.68475718 52.77907312 -205.8125 47.5625 C-205.63525391 46.54478516 -205.45800781 45.52707031 -205.27539062 44.47851562 C-204.84257375 41.98689417 -204.41766724 39.4941977 -204 37 C-203.34 37 -202.68 37 -202 37 C-202.02320313 36.35933594 -202.04640625 35.71867188 -202.0703125 35.05859375 C-202.18440863 29.59012904 -201.79791904 25.16901723 -200 20 C-198.00038782 23.55288236 -197.03331689 27.19355216 -196 31.125 C-195.82339844 31.79515137 -195.64679688 32.46530273 -195.46484375 33.15576172 C-194.52038695 36.7945439 -193.68094515 40.42844063 -193 44.125 C-191.73002417 50.88308567 -190.01204411 58.05974695 -186.875 64.203125 C-186 66 -186 66 -186 68.875 C-184.58311094 73.30277832 -182.1916701 74.37808146 -178.203125 76.5546875 C-172.00958596 79.34933317 -165.56614623 81.27353874 -159 83 C-158.05817871 83.26256592 -157.11635742 83.52513184 -156.14599609 83.7956543 C-147.47840552 86.039572 -139.17250678 86.51251567 -130.25 86.4375 C-129.199832 86.43592896 -129.199832 86.43592896 -128.12844849 86.43432617 C-118.49908137 86.40463687 -109.53128746 85.71932848 -100.27734375 82.875 C-96.72736917 81.92721179 -93.65781681 81.85089154 -90 82 C-90 81.34 -90 80.68 -90 80 C-88.5459375 79.5978125 -88.5459375 79.5978125 -87.0625 79.1875 C-53.46892027 69.52341954 -27.68213902 48.86640461 -9.08374023 19.67138672 C-8.03342983 18.0515568 -6.92754007 16.46818896 -5.8203125 14.88671875 C-4.08296288 12.1315656 -3.14243864 9.87786125 -2.3125 6.75 C-1.05298013 2.10596026 -1.05298013 2.10596026 0 0 Z " fill="#283853" transform="translate(736,750)"/>
<path d="M0 0 C2.41606662 1.18899251 4.8811084 2.23566691 7.35913086 3.2878418 C10.4731286 4.63541264 13.53655484 6.08855292 16.60546875 7.53515625 C29.60266975 13.62006535 42.77028707 19.11240378 56.23046875 24.09765625 C57.01180176 24.4320874 57.79313477 24.76651855 58.59814453 25.11108398 C61.32562167 26.13331874 63.84965539 26.66949716 66.72265625 27.1328125 C67.75777344 27.30232422 68.79289063 27.47183594 69.859375 27.64648438 C70.93058594 27.81599609 72.00179687 27.98550781 73.10546875 28.16015625 C74.70068359 28.42022461 74.70068359 28.42022461 76.328125 28.68554688 C77.88466797 28.93788086 77.88466797 28.93788086 79.47265625 29.1953125 C80.96684082 29.43918701 80.96684082 29.43918701 82.49121094 29.68798828 C84.78572497 30.03114288 87.05439885 30.26249303 89.36328125 30.46875 C92.23046875 31.09765625 92.23046875 31.09765625 93.35864258 32.76489258 C94.40184872 35.55622126 94.73954201 38.08527952 95.046875 41.05078125 C95.2334668 42.81808594 95.2334668 42.81808594 95.42382812 44.62109375 C95.54564453 45.85085938 95.66746094 47.080625 95.79296875 48.34765625 C95.91865234 49.53101563 96.04433594 50.714375 96.17382812 51.93359375 C97.86173923 68.30014537 98.46292146 84.53067955 98.48046875 100.97265625 C98.48280518 101.97781281 98.4851416 102.98296936 98.48754883 104.01858521 C98.5061477 125.46626003 97.12166977 146.74284469 95.23046875 168.09765625 C94.57046875 168.09765625 93.91046875 168.09765625 93.23046875 168.09765625 C93.19308594 169.08121094 93.15570312 170.06476563 93.1171875 171.078125 C92.58757189 182.88263641 91.04208085 194.4288825 89.23046875 206.09765625 C89.0163905 207.50512682 88.80280401 208.91267233 88.58984375 210.3203125 C88.14394825 213.24729794 87.69167715 216.1730524 87.23046875 219.09765625 C86.57046875 219.09765625 85.91046875 219.09765625 85.23046875 219.09765625 C84.90046875 220.74765625 84.57046875 222.39765625 84.23046875 224.09765625 C73.88780694 219.05245537 66.14098183 211.53083777 57.89257812 203.67138672 C53.26315369 199.28812145 48.42050986 195.23247385 43.41796875 191.28515625 C39.6697566 188.31998074 36.11816312 185.21327471 32.60546875 181.97265625 C29.573831 179.17879401 26.57219364 176.51188199 23.23046875 174.09765625 C18.87414442 170.94797166 15.02278026 167.30346466 11.07421875 163.6640625 C7.54635128 160.48025903 3.88052671 157.49957803 0.18359375 154.515625 C-3.20311472 151.74264545 -6.51905103 148.89537292 -9.83203125 146.03515625 C-14.57179398 141.94895563 -19.37119542 137.96737181 -24.28125 134.0859375 C-28.16069246 130.98603764 -31.95691043 127.78765195 -35.765625 124.6015625 C-38.58684276 122.24993625 -41.42368298 119.91937707 -44.26953125 117.59765625 C-45.10331299 116.88279053 -45.93709473 116.1679248 -46.79614258 115.43139648 C-49.67701668 113.02763961 -49.67701668 113.02763961 -52.90087891 111.44189453 C-56.76643553 109.11730048 -59.59419008 107.1105556 -61.76953125 103.09765625 C-63.90000869 94.14173793 -62.97873925 84.59176024 -62.64453125 75.47265625 C-62.60142244 72.95581509 -62.56361566 70.43887724 -62.53125 67.921875 C-62.32069557 55.54676737 -61.75701188 43.32555327 -59.76953125 31.09765625 C-59.10953125 31.09765625 -58.44953125 31.09765625 -57.76953125 31.09765625 C-57.85203125 30.14890625 -57.93453125 29.20015625 -58.01953125 28.22265625 C-57.98234317 19.00001224 -52.16436574 9.93619999 -46.14453125 3.30859375 C-41.85206842 -0.72552641 -37.39141041 -2.38792281 -31.76953125 -3.90234375 C-21.87356557 -7.20099898 -9.12161774 -4.49708499 0 0 Z " fill="#293853" transform="translate(493.76953125,320.90234375)"/>
<path d="M0 0 C0.63921387 0.36480469 1.27842773 0.72960937 1.93701172 1.10546875 C15.80136765 9.05314552 28.53974834 18.43405437 41.15625 28.21875 C48.89574839 34.20875616 56.57326703 39.99492102 65 45 C64.70874847 48.0095991 64.37494343 51.00045257 64 54 C63.91234375 54.804375 63.8246875 55.60875 63.734375 56.4375 C62.37269122 65.67326822 57.30313367 74.1438265 49.86328125 79.8515625 C39.0333314 86.52662593 25.87522784 84.46698282 14 82 C10.92655999 81.1662739 7.97683073 80.12664774 5 79 C3.63875 78.51660156 3.63875 78.51660156 2.25 78.0234375 C-8.31420405 74.26281051 -18.18813212 69.48592497 -28.16015625 64.3828125 C-33.70168732 61.56650973 -39.13379115 59.0531731 -45 57 C-46.155 56.525625 -47.31 56.05125 -48.5 55.5625 C-63.09979488 50.20163782 -78.74103157 47.28798705 -94.04296875 51.62109375 C-103.97512551 56.25260146 -112.77518997 65.07404215 -116.63842773 75.27514648 C-118.14727111 79.49982242 -119.60332311 83.73690204 -121 88 C-121.23315918 88.68126953 -121.46631836 89.36253906 -121.70654297 90.06445312 C-126.37660941 104.22227982 -125.43381369 119.35424819 -125.23828125 134.07421875 C-125.22690628 135.11554962 -125.22690628 135.11554962 -125.21530151 136.17791748 C-125.13207621 140.54210673 -124.69399182 144.7015816 -124 149 C-124.66 149 -125.32 149 -126 149 C-126.31453125 148.41992188 -126.6290625 147.83984375 -126.953125 147.2421875 C-128.84138043 143.79555259 -130.70624113 140.42642416 -132.9375 137.1875 C-134.83094847 134.26126145 -136.30282855 131.38516426 -137.8125 128.25 C-140.69231898 122.38880671 -144.10747765 117.22810564 -148 112 C-148.54011719 111.24332031 -149.08023437 110.48664063 -149.63671875 109.70703125 C-153.97440487 103.54507322 -153.97440487 103.54507322 -160.609375 100.4140625 C-163 99 -163 99 -163.75585938 97.10058594 C-164.37026464 94.53497214 -164.8326241 91.97987283 -165.25 89.375 C-165.40984375 88.49714844 -165.5696875 87.61929688 -165.734375 86.71484375 C-170.14476147 61.97992628 -170.91745249 35.47249942 -156 14 C-144.97650661 0.30194157 -131.77508049 -9.55545633 -115 -15 C-113.20795861 -15.70738476 -111.41629593 -16.41572965 -109.625 -17.125 C-74.96400898 -29.42093816 -30.79506403 -17.90590189 0 0 Z " fill="#5296FB" transform="translate(547,256)"/>
<path d="M0 0 C0.66 0 1.32 0 2 0 C2.34611328 1.12535156 2.34611328 1.12535156 2.69921875 2.2734375 C3.02535156 3.29695312 3.35148437 4.32046875 3.6875 5.375 C4.00074219 6.37273438 4.31398438 7.37046875 4.63671875 8.3984375 C5.74424852 11.32434709 6.95444149 13.92308771 8.390625 16.6875 C11.18614975 22.16299358 13.14343371 27.79473048 15.0625 33.625 C17.29587766 40.38262586 19.67826981 46.69992524 23 53 C24.51911782 56.46358864 25.97838304 59.94830728 27.4375 63.4375 C28.52306668 65.91259202 29.63206394 68.30744582 30.84765625 70.71484375 C32.2454685 73.49351149 33.6310102 76.27733034 35 79.0703125 C35.33 79.73933594 35.66 80.40835938 36 81.09765625 C36.66976787 82.45550596 37.33640936 83.81490201 38 85.17578125 C39.58721421 88.38120994 41.21900232 91.41902273 43.25 94.3671875 C45 97 45 97 45 99 C45.66 99 46.32 99 47 99 C49.63919198 103.63857984 50.62063979 107.9056726 51.3125 113.125 C52.37541554 120.17207646 54.26758446 125.54144502 57.79296875 131.77734375 C59 134 59 134 59 136 C7.52 136 -43.96 136 -97 136 C-96 132 -96 132 -95 131 C-94.14277344 130.96261719 -93.28554687 130.92523437 -92.40234375 130.88671875 C-80.5219347 130.20362871 -73.73105707 124.55099834 -65 117 C-64.42459473 116.50741699 -63.84918945 116.01483398 -63.25634766 115.50732422 C-57.07904832 110.25142989 -57.07904832 110.25142989 -52 104 C-51.34 104 -50.68 104 -50 104 C-49.7215625 103.01 -49.7215625 103.01 -49.4375 102 C-47.75814259 98.49525409 -45.58590784 96.15965347 -42.9921875 93.296875 C-39.34981292 89.09743136 -36.21550502 84.52860966 -33 80 C-32.15308594 78.86498047 -32.15308594 78.86498047 -31.2890625 77.70703125 C-19.37131733 61.4530173 -8.73256712 41.6063495 -4 22 C-3.67 21.34 -3.34 20.68 -3 20 C-2.71395783 18.4827016 -2.46851271 16.95760908 -2.24609375 15.4296875 C-2.04790039 14.08583984 -2.04790039 14.08583984 -1.84570312 12.71484375 C-1.64364258 11.30912109 -1.64364258 11.30912109 -1.4375 9.875 C-1.29892578 8.93011719 -1.16035156 7.98523438 -1.01757812 7.01171875 C-0.67531811 4.674909 -0.33625891 2.33767957 0 0 Z " fill="#293853" transform="translate(271,888)"/>
<path d="M0 0 C3.375 0.6875 3.375 0.6875 4.375 1.6875 C4.68774333 8.89899315 4.59380617 16.08786162 3.5859375 23.23828125 C3.18864083 27.85133706 3.46958525 32.51354684 3.6328125 37.13671875 C3.35149678 41.01120348 2.3255956 43.36331744 0.375 46.6875 C-0.73875 46.625625 -1.8525 46.56375 -3 46.5 C-4.794375 46.5928125 -4.794375 46.5928125 -6.625 46.6875 C-7.285 47.6775 -7.945 48.6675 -8.625 49.6875 C-9.285 49.3575 -9.945 49.0275 -10.625 48.6875 C-10.31646774 44.97882544 -10.00246793 41.2706331 -9.6875 37.5625 C-9.55698242 35.99242187 -9.55698242 35.99242187 -9.42382812 34.390625 C-8.73495277 26.32823198 -8.73495277 26.32823198 -8.08203125 22.5234375 C-7.30699569 17.71424247 -7.30308151 12.83375099 -7.1953125 7.96875 C-7.11184078 5.86804509 -6.87860095 3.77451107 -6.625 1.6875 C-3.625 -0.3125 -3.625 -0.3125 0 0 Z " fill="#93CBF4" transform="translate(746.625,669.3125)"/>
<path d="M0 0 C1.43861294 0.08746284 2.87597508 0.19565348 4.3125 0.3125 C5.11300781 0.37050781 5.91351562 0.42851563 6.73828125 0.48828125 C9.4600815 1.10409443 10.27138705 1.84229872 12 4 C12.34057617 5.90112305 12.34057617 5.90112305 12.29296875 8.01171875 C12.28330078 8.76904297 12.27363281 9.52636719 12.26367188 10.30664062 C12.23853516 11.09232422 12.21339844 11.87800781 12.1875 12.6875 C12.16719727 13.88342773 12.16719727 13.88342773 12.14648438 15.10351562 C12.11117089 17.06929967 12.05736447 19.03473582 12 21 C6.71553611 24.0404814 6.71553611 24.0404814 3.4453125 23.85546875 C2.67960938 23.63503906 1.91390625 23.41460938 1.125 23.1875 C0.34382812 22.97480469 -0.43734375 22.76210938 -1.2421875 22.54296875 C-1.82226562 22.36378906 -2.40234375 22.18460938 -3 22 C-3.92328755 18.19493617 -4.04845247 14.89977889 -3.75 11 C-3.68296875 9.989375 -3.6159375 8.97875 -3.546875 7.9375 C-2.94849517 4.7233455 -1.83344872 2.68117232 0 0 Z " fill="#D2F2FE" transform="translate(740,715)"/>
<path d="M0 0 C4.24831989 0.49019076 7.1234576 3.02622237 10 6 C15.20109091 13.80163636 15.3547447 23.91459409 15 33 C10.78909956 30.81738668 8.52501436 28.42927578 5.8125 24.5625 C5.13832031 23.61503906 4.46414063 22.66757812 3.76953125 21.69140625 C0.71626968 17.04748303 -0.30067775 13.99343461 -0.6875 8.375 C-0.77386719 7.22773438 -0.86023438 6.08046875 -0.94921875 4.8984375 C-1 2 -1 2 0 0 Z " fill="#354159" transform="translate(386,371)"/>
<path d="M0 0 C1.32 0.66 2.64 1.32 4 2 C4 7.61 4 13.22 4 19 C2.35 18.67 0.7 18.34 -1 18 C-0.505 9.09 -0.505 9.09 0 0 Z " fill="#D8F4FE" transform="translate(748,717)"/>
<path d="M0 0 C2 1 2 1 3 3.875 C3.33 4.90625 3.66 5.9375 4 7 C4.99 8.485 4.99 8.485 6 10 C3 12 3 12 0.7734375 11.86328125 C-0.01804687 11.68152344 -0.80953125 11.49976563 -1.625 11.3125 C-2.42164063 11.14363281 -3.21828125 10.97476563 -4.0390625 10.80078125 C-5.00972656 10.40439453 -5.00972656 10.40439453 -6 10 C-6.33 9.01 -6.66 8.02 -7 7 C-6.38125 6.87625 -5.7625 6.7525 -5.125 6.625 C-2.80879168 6.12802644 -2.80879168 6.12802644 -1 4 C-0.3574765 1.93125966 -0.3574765 1.93125966 0 0 Z " fill="#B9E4FE" transform="translate(743,727)"/>
<path d="M0 0 C0.99 0.33 1.98 0.66 3 1 C3 4.96 3 8.92 3 13 C2.34 13 1.68 13 1 13 C0.67 8.71 0.34 4.42 0 0 Z " fill="#E8FAFE" transform="translate(748,717)"/>
<path d="M0 0 C1.88391785 3.26545761 2.49287967 6.28111761 3 10 C2.67 9.01 2.34 8.02 2 7 C-0.51083114 8.25541557 -0.87125446 9.50063488 -2 12 C-1.85904936 10.3745692 -1.71207913 8.74965949 -1.5625 7.125 C-1.48128906 6.22007812 -1.40007813 5.31515625 -1.31640625 4.3828125 C-1 2 -1 2 0 0 Z " fill="#5D7B9B" transform="translate(536,770)"/>
<path d="M0 0 C0.33 0 0.66 0 1 0 C0.88490339 1.41750563 0.75746342 2.83401169 0.625 4.25 C0.55539062 5.03890625 0.48578125 5.8278125 0.4140625 6.640625 C-0.01507113 9.085877 -0.78600638 10.84836903 -2 13 C-3.71050559 8.02398374 -2.00885647 4.57383705 0 0 Z " fill="#51688A" transform="translate(736,750)"/>
<path d="M0 0 C0.33 0 0.66 0 1 0 C1 2.31 1 4.62 1 7 C0.01 7 -0.98 7 -2 7 C-2.99 7.495 -2.99 7.495 -4 8 C-2.87548273 5.0280615 -1.77706209 2.66559313 0 0 Z " fill="#3D4C67" transform="translate(733,760)"/>
</svg>
