<?xml version="1.0" encoding="UTF-8"?>
<svg version="1.1" xmlns="http://www.w3.org/2000/svg" width="512" height="512">
<path d="M0 0 C0.9355925 -0.00974854 1.871185 -0.01949707 2.83512878 -0.02954102 C23.24416486 -0.1984297 42.96079539 -0.03089418 63.0078125 4.23828125 C63.93158691 4.42551758 64.85536133 4.61275391 65.80712891 4.80566406 C101.4803425 12.13655694 136.04867954 27.05718327 165.0078125 49.23828125 C165.5857959 49.67495117 166.1637793 50.11162109 166.75927734 50.56152344 C175.26586251 57.002323 183.31244993 63.84319145 191.0078125 71.23828125 C191.60239258 71.80562988 192.19697266 72.37297852 192.80957031 72.95751953 C201.15799553 80.96365501 208.80764092 89.18319073 215.69726562 98.47900391 C217.02578341 100.26240538 218.38141287 102.02237641 219.7421875 103.78125 C227.10148221 113.40694237 233.21551204 123.60687263 239.0078125 134.23828125 C239.3697168 134.89876465 239.73162109 135.55924805 240.10449219 136.23974609 C257.60985188 168.57859478 268.92626162 206.31643928 269.24609375 243.23046875 C269.25584229 244.16606125 269.26559082 245.10165375 269.27563477 246.06559753 C269.44452345 266.47463361 269.27698793 286.19126414 265.0078125 306.23828125 C264.82057617 307.16205566 264.63333984 308.08583008 264.44042969 309.03759766 C257.10953681 344.71081125 242.18891048 379.27914829 220.0078125 408.23828125 C219.57114258 408.81626465 219.13447266 409.39424805 218.68457031 409.98974609 C212.24377075 418.49633126 205.4029023 426.54291868 198.0078125 434.23828125 C197.44046387 434.83286133 196.87311523 435.42744141 196.28857422 436.04003906 C188.28243874 444.38846428 180.06290302 452.03810967 170.76708984 458.92773438 C168.98368837 460.25625216 167.22371734 461.61188162 165.46484375 462.97265625 C155.83915138 470.33195096 145.63922112 476.44598079 135.0078125 482.23828125 C134.3473291 482.60018555 133.6868457 482.96208984 133.00634766 483.33496094 C100.66749897 500.84032063 62.92965447 512.15673037 26.015625 512.4765625 C25.0800325 512.48631104 24.14444 512.49605957 23.18049622 512.50610352 C2.77146014 512.6749922 -16.94517039 512.50745668 -36.9921875 508.23828125 C-37.91596191 508.05104492 -38.83973633 507.86380859 -39.79150391 507.67089844 C-75.4647175 500.34000556 -110.03305454 485.41937923 -138.9921875 463.23828125 C-139.5701709 462.80161133 -140.1481543 462.36494141 -140.74365234 461.91503906 C-149.25023751 455.4742395 -157.29682493 448.63337105 -164.9921875 441.23828125 C-165.58676758 440.67093262 -166.18134766 440.10358398 -166.79394531 439.51904297 C-175.14237053 431.51290749 -182.79201592 423.29337177 -189.68164062 413.99755859 C-191.01015841 412.21415712 -192.36578787 410.45418609 -193.7265625 408.6953125 C-201.08585721 399.06962013 -207.19988704 388.86968987 -212.9921875 378.23828125 C-213.3540918 377.57779785 -213.71599609 376.91731445 -214.08886719 376.23681641 C-231.59422688 343.89796772 -242.91063662 306.16012322 -243.23046875 269.24609375 C-243.24021729 268.31050125 -243.24996582 267.37490875 -243.26000977 266.41096497 C-243.42889845 246.00192889 -243.26136293 226.28529836 -238.9921875 206.23828125 C-238.80495117 205.31450684 -238.61771484 204.39073242 -238.42480469 203.43896484 C-231.09391181 167.76575125 -216.17328548 133.19741421 -193.9921875 104.23828125 C-193.55551758 103.66029785 -193.11884766 103.08231445 -192.66894531 102.48681641 C-186.22814575 93.98023124 -179.3872773 85.93364382 -171.9921875 78.23828125 C-171.42483887 77.64370117 -170.85749023 77.04912109 -170.27294922 76.43652344 C-162.26681374 68.08809822 -154.04727802 60.43845283 -144.75146484 53.54882812 C-142.96806337 52.22031034 -141.20809234 50.86468088 -139.44921875 49.50390625 C-129.82352638 42.14461154 -119.62359612 36.03058171 -108.9921875 30.23828125 C-108.3317041 29.87637695 -107.6712207 29.51447266 -106.99072266 29.14160156 C-74.65187397 11.63624187 -36.91402947 0.31983213 0 0 Z " fill="#5E55F2" transform="translate(242.9921875,-0.23828125)"/>
<path d="M0 0 C1.11503906 0.32871094 2.23007813 0.65742188 3.37890625 0.99609375 C15.8523988 5.02384721 26.8215789 11.40008292 36.3046875 20.44921875 C39.81352866 23.76990466 43.46496454 26.91042273 47.125 30.0625 C48.44015018 31.19916551 49.75525814 32.33587988 51.0703125 33.47265625 C52.52050781 34.72369141 52.52050781 34.72369141 54 36 C52.24498169 39.83427901 50.21219719 41.69572839 46.875 44.3125 C42.63586419 47.66269514 38.62782841 51.11766137 34.75390625 54.8828125 C33 56 33 56 31.08203125 55.953125 C28.2245093 54.64499112 26.38790358 52.80536607 24.125 50.625 C7.41608345 34.57477181 7.41608345 34.57477181 -14 28 C-14.94359375 27.94972656 -15.8871875 27.89945313 -16.859375 27.84765625 C-29.623675 27.45850076 -41.62038542 29.21528906 -52 37 C-52.70640625 37.51433594 -53.4128125 38.02867187 -54.140625 38.55859375 C-59.86331831 43.11272182 -63.48093787 48.64787013 -67 55 C-67.43699219 55.72316406 -67.87398437 56.44632813 -68.32421875 57.19140625 C-73.68098451 67.69818541 -72.48008725 84.33035413 -69.18359375 95.35546875 C-66.898655 100.46076094 -63.53526841 104.70475067 -60 109 C-59.35933594 109.85335937 -58.71867187 110.70671875 -58.05859375 111.5859375 C-55.89496784 114.12316864 -53.75364098 115.81955757 -51 117.6875 C-50.154375 118.26886719 -49.30875 118.85023438 -48.4375 119.44921875 C-37.60772976 126.33931295 -22.4498074 127.58520826 -9.99609375 125.49609375 C6.2630273 121.53872771 17.60235141 109.1795773 29.56640625 98.22265625 C34.01271825 94.16173887 38.55846714 90.22149128 43.1484375 86.32421875 C49.73332411 80.72507699 56.20322512 75.03917689 62.52832031 69.14746094 C65.29353347 66.57213366 68.07535687 64.02965522 70.9375 61.5625 C74.02635882 58.89721887 77.00807266 56.13251404 79.98266602 53.34155273 C85.54469654 48.12385605 91.18778258 43.15173093 97.14453125 38.3828125 C100.60535729 35.49484549 103.89767745 32.45479679 107.1875 29.375 C107.79062012 28.81071289 108.39374023 28.24642578 109.01513672 27.66503906 C110.16925459 26.58446636 111.32323269 25.50374436 112.47705078 24.42285156 C133.34489423 4.92657204 153.02943271 -4.16942279 181.6328125 -3.375 C205.07553704 -2.25901192 221.68106804 8.1172842 237.75 24.6875 C253.4556202 42.88056649 257.68585716 64.54163775 256 88 C253.25846214 108.93072775 242.35957753 127.04082874 226.08984375 140.44921875 C206.84494485 154.73001288 185.56193599 159.33559432 161.82275391 156.76416016 C141.53956585 153.53343712 123.49639991 139.55479922 109.04296875 125.83203125 C106.13433712 123.08368078 103.09761975 120.53273244 100 118 C102.40939159 111.95563034 108.24405684 108.1844417 113 104 C113.70640625 103.33355469 114.4128125 102.66710937 115.140625 101.98046875 C116.9375 100.3125 116.9375 100.3125 120 98 C123.82158541 98.22992941 126.10025551 100.47720842 128.9375 102.875 C129.906875 103.68324219 130.87625 104.49148438 131.875 105.32421875 C134.00432911 107.13293865 136.10175495 108.97330174 138.1875 110.83203125 C152.64388502 123.59984078 164.95018199 127.04234148 184 126 C187.92749301 125.44018899 191.33758292 124.50300198 195 123 C195.82113281 122.69449219 196.64226562 122.38898438 197.48828125 122.07421875 C209.29090046 117.02644226 218.19407747 106.19522504 223.0234375 94.52734375 C226.73028992 83.25375129 226.83976693 67.60687379 221.96484375 56.6796875 C220.74647503 54.36831275 219.42606959 52.18875861 218 50 C217.56816406 49.32066406 217.13632812 48.64132813 216.69140625 47.94140625 C209.58133787 37.60864399 199.35211641 31.32687786 187.29736328 28.41894531 C173.85225417 25.96710607 160.16309371 26.94251859 148.671875 34.5390625 C143.38369869 38.44047929 138.63772237 43.01882271 133.8125 47.46875 C131.14792662 49.86686605 128.42058363 52.13203174 125.625 54.375 C120.19108991 58.75944247 115.10173982 63.45500063 110 68.21484375 C107.04123978 70.97346339 104.01604915 73.64611326 100.95703125 76.29296875 C97.74069088 79.09843929 94.58523502 81.97142919 91.41796875 84.83203125 C89.4009831 86.64047557 87.36508404 88.4198734 85.3125 90.1875 C82.01380181 93.05215896 78.83129192 96.02727195 75.65258789 99.02319336 C69.84903146 104.49219268 63.98840486 109.73858419 57.75390625 114.71875 C54.50055398 117.4137255 51.40381024 120.24718905 48.3125 123.125 C47.75473877 123.64392822 47.19697754 124.16285645 46.62231445 124.69750977 C45.55337063 125.69284321 44.4845965 126.68835894 43.41601562 127.68408203 C40.34322884 130.53965458 37.21685372 133.30788128 34 136 C33.50951172 136.41636719 33.01902344 136.83273437 32.51367188 137.26171875 C15.81502843 151.33826116 -2.05119542 157.86357667 -23.9375 157.625 C-24.98707886 157.61953156 -24.98707886 157.61953156 -26.05786133 157.61395264 C-37.10452175 157.51720139 -46.22639918 156.53763839 -56 151 C-56.66870117 150.63551758 -57.33740234 150.27103516 -58.02636719 149.89550781 C-72.75191972 141.78391721 -82.90013157 130.98148738 -92 117 C-92.68578125 115.95972656 -93.3715625 114.91945313 -94.078125 113.84765625 C-103.90307018 97.47962783 -104.56575881 74.45261236 -100.5 56.125 C-97.50516955 44.17798642 -91.20188353 33.14065333 -83 24 C-82.23429687 23.12988281 -81.46859375 22.25976562 -80.6796875 21.36328125 C-60.06401253 -0.69856794 -28.98205425 -9.02719723 0 0 Z " fill="#FCFCFE" transform="translate(179,179)"/>
<path d="M0 0 C0.66 0.33 1.32 0.66 2 1 C-2.29 5.29 -6.58 9.58 -11 14 C-11 9.40845608 -8.09282279 7.18698368 -5 4 C-3.3719908 2.61973133 -1.71956118 1.26438322 0 0 Z " fill="#7379F9" transform="translate(128,214)"/>
</svg>
